<svg width="178" height="41" viewBox="0 0 178 41" fill="none" xmlns="http://www.w3.org/2000/svg">
<path d="M54.555 18.6049L54.2021 16.4841H48.988L47.9051 18.6049H44.5405L51.4704 5.10645H55.5102L57.7431 18.6049H54.555ZM50.4726 13.5898H53.7276L53.0827 8.48409L50.4726 13.5898Z" fill="black"/>
<path d="M66.7477 5.10645C68.5365 5.10645 69.9663 5.78922 71.0492 7.14874C72.1322 8.5143 72.5033 10.1457 72.1626 12.049C71.828 13.9645 70.9336 15.5354 69.4856 16.762C68.0376 17.9886 66.3279 18.6049 64.3567 18.6049H58.9053L61.3085 5.10645H66.7477ZM69.1631 11.759C69.37 10.617 69.1997 9.71672 68.6582 9.05811C68.1167 8.3995 67.3014 8.07321 66.2123 8.07321H63.8821L62.5314 15.6321H64.673C65.823 15.6321 66.8086 15.2817 67.6239 14.5687C68.4452 13.8678 68.9563 12.9312 69.1631 11.759Z" fill="black"/>
<path d="M75.0281 18.6049L73.1846 5.10645H76.4274L77.4921 15.04L82.0553 5.10645H85.6084L78.9888 18.6049H75.0281Z" fill="black"/>
<path d="M94.6984 8.07907H89.3565L88.9549 10.3328H93.8283L93.3051 13.2271H88.4378L88.0058 15.638H93.445L92.9218 18.6108H84.3857L86.789 5.1123H95.2216L94.6984 8.07907Z" fill="black"/>
<path d="M94.6797 18.6049L97.1012 5.10645H99.4253L103.313 12.6895L104.639 5.10645H107.736L105.357 18.6049H103.027L99.1455 11.0279L97.7765 18.6049H94.6797Z" fill="black"/>
<path d="M119.205 5.10645L118.682 8.07926H115.184L113.31 18.611H110.213L112.087 8.07926H108.588L109.112 5.10645H119.205Z" fill="black"/>
<path d="M120.574 5.10645H123.671L121.274 18.6049H118.177L120.574 5.10645Z" fill="black"/>
<path d="M128.35 18.8771C126.926 18.8771 125.77 18.581 124.882 17.9828C123.994 17.3846 123.428 16.575 123.185 15.5417L126.02 14.0976C126.354 15.3061 127.224 15.9103 128.624 15.9103C129.816 15.9103 130.479 15.5296 130.625 14.7744C130.705 14.3876 130.571 14.0855 130.23 13.8559C129.889 13.6324 129.281 13.3725 128.417 13.0765C127.133 12.6535 126.178 12.1097 125.551 11.445C124.925 10.7804 124.712 9.85593 124.919 8.65955C125.125 7.40275 125.709 6.44807 126.665 5.80759C127.62 5.1671 128.727 4.84082 129.987 4.84082C131.1 4.84082 132.067 5.10668 132.889 5.63236C133.71 6.15804 134.294 6.91333 134.647 7.88614L131.927 9.31212C131.447 8.3091 130.711 7.80759 129.713 7.80759C129.244 7.80759 128.873 7.90426 128.599 8.09762C128.32 8.29097 128.149 8.53266 128.082 8.82874C128.003 9.20336 128.131 9.50547 128.46 9.74716C128.788 9.98281 129.36 10.2547 130.175 10.5447C130.419 10.6354 130.625 10.7079 130.79 10.7683C130.954 10.8287 131.149 10.9012 131.38 10.9979C131.611 11.0946 131.806 11.1852 131.952 11.2698C132.098 11.3544 132.274 11.4571 132.475 11.578C132.676 11.6988 132.84 11.8257 132.962 11.9526C133.083 12.0795 133.217 12.2245 133.351 12.3876C133.485 12.5508 133.588 12.72 133.661 12.9073C133.734 13.0946 133.795 13.294 133.844 13.5055C133.893 13.717 133.917 13.9526 133.911 14.2124C133.905 14.4722 133.874 14.7441 133.826 15.0402C133.607 16.2728 133.004 17.2215 132.031 17.8861C131.051 18.5447 129.828 18.8771 128.35 18.8771Z" fill="black"/>
<path d="M145.823 5.10645L145.3 8.07926H141.802L139.928 18.611H136.831L138.705 8.07926H135.207L135.73 5.10645H145.823Z" fill="black"/>
<path d="M46.3113 34.4956L45.1797 20.9971H48.2826L49.0066 30.4472L53.2959 20.9971H55.8148L56.77 30.4593L60.7916 20.9971H64.1683L58.0355 34.4956H54.5006L53.6853 26.5681L50.0835 34.4956H46.3113Z" fill="black"/>
<path d="M69.1814 34.7679C67.2162 34.7679 65.6526 34.0609 64.4905 32.647C63.3345 31.2331 62.933 29.5353 63.298 27.5534C63.6509 25.5473 64.5757 23.9099 66.0846 22.635C67.5934 21.36 69.4004 20.7256 71.5116 20.7256C73.4525 20.7256 75.0039 21.4325 76.1599 22.8464C77.3159 24.2603 77.7235 25.9582 77.3767 27.9401C77.0117 29.9461 76.0808 31.5836 74.578 32.8585C73.0813 34.1334 71.2804 34.7679 69.1814 34.7679ZM69.516 31.7588C70.6538 31.7588 71.682 31.3842 72.5946 30.641C73.5072 29.8978 74.067 28.931 74.2738 27.7467C74.4807 26.5624 74.2738 25.6017 73.6593 24.8525C73.0448 24.1093 72.1748 23.7346 71.0492 23.7346C69.9237 23.7346 68.9198 24.1093 68.0376 24.8525C67.1554 25.5957 66.6139 26.5624 66.407 27.7467C66.2002 28.9431 66.3888 29.9099 66.9668 30.647C67.5508 31.3902 68.4026 31.7588 69.516 31.7588Z" fill="black"/>
<path d="M89.6298 25.8188C89.4594 26.7191 89.1005 27.4986 88.5407 28.1632C87.981 28.8279 87.2935 29.3173 86.46 29.6376L88.4373 34.4956H85.2918L83.5274 30.0605L81.836 30.0726L81.0451 34.4956H77.9482L80.3576 20.9971H85.5838C86.8737 20.9971 87.9323 21.4805 88.7476 22.4533C89.569 23.4261 89.861 24.5439 89.6298 25.8188ZM85.8698 26.8883C86.2105 26.556 86.4295 26.1391 86.5208 25.6376C86.6121 25.136 86.5269 24.7191 86.2592 24.3868C85.9915 24.0545 85.6021 23.8913 85.0849 23.8913H82.9494L82.3227 27.3838H84.653C85.1214 27.3838 85.5291 27.2146 85.8698 26.8883Z" fill="black"/>
<path d="M93.5244 31.5296H98.3795L97.8563 34.5024H89.9043L90.4336 31.5175L92.3015 21.0039H95.3983L93.5244 31.5296Z" fill="black"/>
<path d="M107.061 20.9971C108.85 20.9971 110.28 21.6799 111.363 23.0394C112.446 24.4049 112.817 26.0363 112.476 27.9397C112.141 29.8551 111.247 31.4261 109.799 32.6527C108.351 33.8792 106.641 34.4956 104.67 34.4956H99.2188L101.622 20.9971H107.061ZM109.477 27.6496C109.683 26.5076 109.513 25.6073 108.972 24.9487C108.43 24.2901 107.615 23.9638 106.526 23.9638H104.196L102.845 31.5228H104.987C106.136 31.5228 107.122 31.1723 107.937 30.4593C108.759 29.7584 109.27 28.8218 109.477 27.6496Z" fill="black"/>
<path d="M129.573 25.8188C129.402 26.7191 129.043 27.4986 128.484 28.1632C127.924 28.8279 127.236 29.3173 126.403 29.6376L128.38 34.4956H125.235L123.47 30.0605L121.779 30.0726L120.988 34.4956H117.891L120.3 20.9971H125.527C126.817 20.9971 127.875 21.4805 128.69 22.4533C129.512 23.4261 129.804 24.5439 129.573 25.8188ZM125.813 26.8883C126.153 26.556 126.372 26.1391 126.464 25.6376C126.555 25.136 126.47 24.7191 126.202 24.3868C125.934 24.0545 125.545 23.8913 125.028 23.8913H122.892L122.266 27.3838H124.596C125.064 27.3838 125.472 27.2146 125.813 26.8883Z" fill="black"/>
<path d="M138.699 34.4956L138.346 32.3747H133.132L132.049 34.4956H128.685L135.614 20.9971H139.654L141.887 34.4956H138.699ZM134.611 29.4805H137.866L137.227 24.3687L134.611 29.4805Z" fill="black"/>
<path d="M150.891 20.9971C152.68 20.9971 154.11 21.6799 155.193 23.0394C156.276 24.4049 156.647 26.0363 156.306 27.9397C155.972 29.8551 155.077 31.4261 153.629 32.6527C152.181 33.8792 150.471 34.4956 148.5 34.4956H143.049L145.452 20.9971H150.891ZM153.301 27.6496C153.507 26.5076 153.337 25.6073 152.796 24.9487C152.254 24.2901 151.439 23.9638 150.35 23.9638H148.02L146.669 31.5228H148.811C149.96 31.5228 150.946 31.1723 151.761 30.4593C152.583 29.7584 153.094 28.8218 153.301 27.6496Z" fill="black"/>
<path d="M159.276 20.9971H162.372L159.975 34.4956H156.878L159.276 20.9971Z" fill="black"/>
<path d="M168.834 34.7679C166.869 34.7679 165.305 34.0609 164.143 32.647C162.987 31.2331 162.585 29.5353 162.95 27.5534C163.303 25.5473 164.228 23.9099 165.737 22.635C167.246 21.36 169.053 20.7256 171.164 20.7256C173.105 20.7256 174.656 21.4325 175.812 22.8464C176.968 24.2603 177.376 25.9582 177.029 27.9401C176.664 29.9461 175.733 31.5836 174.23 32.8585C172.734 34.1334 170.933 34.7679 168.834 34.7679ZM169.168 31.7588C170.306 31.7588 171.334 31.3842 172.247 30.641C173.16 29.8978 173.719 28.931 173.926 27.7467C174.133 26.5624 173.926 25.6017 173.312 24.8525C172.697 24.1093 171.827 23.7346 170.702 23.7346C169.576 23.7346 168.572 24.1093 167.69 24.8525C166.808 25.5957 166.266 26.5624 166.059 27.7467C165.853 28.9431 166.041 29.9099 166.619 30.647C167.203 31.3902 168.055 31.7588 169.168 31.7588Z" fill="black"/>
<path d="M20.2828 39.9879C31.4017 39.9879 40.4153 31.0363 40.4153 19.994C40.4153 8.9516 31.4017 0 20.2828 0C9.16399 0 0.150391 8.9516 0.150391 19.994C0.150391 31.0363 9.16399 39.9879 20.2828 39.9879Z" fill="white"/>
<path d="M2.28593 28.8946C2.38327 28.8946 2.46845 28.8946 2.55971 28.8946C8.21797 28.8946 13.8762 28.8885 19.5284 28.9006C21.3962 28.9066 23.1545 29.3236 24.6938 30.4353C25.9228 31.3175 26.7564 32.5078 27.3648 33.8674C27.4439 34.0486 27.4925 34.2964 27.7663 34.2359C28.0401 34.1816 28.0219 33.9338 28.0219 33.7224C28.0219 29.813 28.0219 25.9097 28.0219 22.0003C28.0219 21.9459 28.0401 21.8855 28.0158 21.8432C27.9428 21.7163 27.8819 21.5411 27.7663 21.4867C27.5899 21.4081 27.4865 21.5713 27.4195 21.7223C26.9571 22.7858 26.3609 23.7526 25.5274 24.5743C24.3531 25.7344 22.9234 26.393 21.305 26.6468C20.5992 26.7556 19.8752 26.81 19.1573 26.81C13.3347 26.8281 7.51221 26.822 1.6836 26.8281C1.43415 26.8281 1.31855 26.7556 1.23337 26.5199C0.661459 24.822 0.302494 23.0879 0.199064 21.2994C0.186896 21.0214 0.168643 20.7435 0.150391 20.4353C0.284242 20.4353 0.375504 20.4353 0.47285 20.4353C9.22185 20.4353 17.9648 20.4233 26.7138 20.4414C28.7033 20.4474 30.559 20.9429 32.1408 22.2178C33.2056 23.0758 33.9417 24.1755 34.4954 25.4081C34.5258 25.4807 34.5441 25.5713 34.5988 25.6196C34.6779 25.6921 34.7874 25.7767 34.8787 25.7707C34.9639 25.7586 35.0673 25.6559 35.116 25.5652C35.1647 25.4807 35.1586 25.3598 35.1586 25.2571C35.1586 21.3477 35.1586 17.4444 35.1586 13.535C35.1586 13.4807 35.1768 13.4202 35.1525 13.3779C35.0795 13.251 35.0126 13.0698 34.8969 13.0214C34.7205 12.9429 34.6232 13.1121 34.5562 13.2692C34.0999 14.3024 33.5219 15.2571 32.7188 16.0607C31.5507 17.239 30.1148 17.9157 28.4903 18.1755C27.7846 18.2903 27.0606 18.3447 26.3487 18.3507C17.7762 18.3628 9.20969 18.3568 0.637122 18.3568C0.515439 18.3568 0.393756 18.3568 0.2234 18.3568C0.278158 17.8794 0.320747 17.4263 0.387672 16.9791C0.643206 15.3115 1.1056 13.6982 1.76877 12.1393C1.8357 11.9761 1.91479 11.8976 2.11557 11.8976C5.72347 11.9097 9.32528 11.8794 12.9332 11.9217C15.0322 11.9459 16.9609 12.526 18.5488 13.9761C19.4371 14.7918 20.076 15.7767 20.5688 16.8643C20.6053 16.9429 20.6235 17.0456 20.6844 17.1C20.7635 17.1725 20.8852 17.2631 20.9643 17.245C21.0616 17.2208 21.1529 17.106 21.2137 17.0094C21.2502 16.9429 21.232 16.8402 21.232 16.7495C21.232 12.8341 21.232 8.91872 21.232 5.00331C21.232 4.96102 21.232 4.91268 21.232 4.87038C21.232 4.68911 21.1833 4.52597 20.9825 4.48972C20.7878 4.45346 20.7026 4.59848 20.6357 4.75558C20.0942 6.00029 19.3641 7.11812 18.3055 7.99425C17.1191 8.97914 15.7441 9.52295 14.223 9.7163C13.5294 9.80089 12.8237 9.83715 12.124 9.83715C9.19143 9.84923 6.26496 9.84319 3.3324 9.84319C3.22897 9.84319 3.12554 9.84319 2.95518 9.84319C4.73175 6.90059 7.04373 4.56827 9.95195 2.84621C14.004 0.44742 18.3907 -0.428713 23.0633 0.193643C33.0352 1.51691 40.7377 10.1634 40.4274 20.5864C40.1293 30.6649 32.4876 38.6227 22.9294 39.8311C12.7507 41.1121 5.10897 34.9369 2.28593 28.8946Z" fill="#0F46C1"/>
</svg>
