<svg width="177" height="41" viewBox="0 0 177 41" fill="none" xmlns="http://www.w3.org/2000/svg">
<path d="M54.4045 18.6049L54.0516 16.4841H48.8375L47.7545 18.6049H44.39L51.3198 5.10645H55.3597L57.5926 18.6049H54.4045ZM50.322 13.5898H53.577L52.9321 8.48409L50.322 13.5898Z" fill="black"/>
<path d="M66.5969 5.10645C68.3857 5.10645 69.8154 5.78922 70.8984 7.14874C71.9814 8.5143 72.3525 10.1457 72.0118 12.049C71.6772 13.9645 70.7828 15.5354 69.3348 16.762C67.8868 17.9886 66.1771 18.6049 64.2059 18.6049H58.7545L61.1577 5.10645H66.5969ZM69.0123 11.759C69.2192 10.617 69.0488 9.71672 68.5073 9.05811C67.9659 8.3995 67.1506 8.07321 66.0615 8.07321H63.7313L62.3806 15.6321H64.5222C65.6721 15.6321 66.6578 15.2817 67.473 14.5687C68.2944 13.8678 68.8055 12.9312 69.0123 11.759Z" fill="black"/>
<path d="M74.8776 18.6049L73.0341 5.10645H76.2769L77.3416 15.04L81.9047 5.10645H85.4579L78.8383 18.6049H74.8776Z" fill="black"/>
<path d="M94.5476 8.07907H89.2057L88.8041 10.3328H93.6775L93.1543 13.2271H88.287L87.855 15.638H93.2942L92.771 18.6108H84.2349L86.6382 5.1123H95.0708L94.5476 8.07907Z" fill="black"/>
<path d="M94.5294 18.6049L96.9509 5.10645H99.275L103.163 12.6895L104.489 5.10645H107.586L105.207 18.6049H102.877L98.9951 11.0279L97.6262 18.6049H94.5294Z" fill="black"/>
<path d="M119.055 5.10645L118.532 8.07926H115.033L113.159 18.611H110.062L111.936 8.07926H108.438L108.961 5.10645H119.055Z" fill="black"/>
<path d="M120.423 5.10645H123.52L121.123 18.6049H118.026L120.423 5.10645Z" fill="black"/>
<path d="M128.199 18.8771C126.775 18.8771 125.62 18.581 124.731 17.9828C123.843 17.3846 123.277 16.575 123.034 15.5417L125.869 14.0976C126.204 15.3061 127.074 15.9103 128.473 15.9103C129.665 15.9103 130.329 15.5296 130.475 14.7744C130.554 14.3876 130.42 14.0855 130.079 13.8559C129.738 13.6324 129.13 13.3725 128.266 13.0765C126.982 12.6535 126.027 12.1097 125.4 11.445C124.774 10.7804 124.561 9.85593 124.768 8.65955C124.975 7.40275 125.559 6.44807 126.514 5.80759C127.469 5.1671 128.576 4.84082 129.836 4.84082C130.949 4.84082 131.917 5.10668 132.738 5.63236C133.559 6.15804 134.143 6.91333 134.496 7.88614L131.777 9.31212C131.296 8.3091 130.56 7.80759 129.562 7.80759C129.094 7.80759 128.722 7.90426 128.449 8.09762C128.169 8.29097 127.998 8.53266 127.931 8.82874C127.852 9.20336 127.98 9.50547 128.309 9.74716C128.637 9.98281 129.209 10.2547 130.024 10.5447C130.268 10.6354 130.475 10.7079 130.639 10.7683C130.803 10.8287 130.998 10.9012 131.229 10.9979C131.46 11.0946 131.655 11.1852 131.801 11.2698C131.947 11.3544 132.123 11.4571 132.324 11.578C132.525 11.6988 132.689 11.8257 132.811 11.9526C132.933 12.0795 133.066 12.2245 133.2 12.3876C133.334 12.5508 133.438 12.72 133.511 12.9073C133.584 13.0946 133.644 13.294 133.693 13.5055C133.742 13.717 133.766 13.9526 133.76 14.2124C133.754 14.4722 133.724 14.7441 133.675 15.0402C133.456 16.2728 132.854 17.2215 131.88 17.8861C130.901 18.5447 129.678 18.8771 128.199 18.8771Z" fill="black"/>
<path d="M145.673 5.10645L145.15 8.07926H141.651L139.777 18.611H136.681L138.554 8.07926H135.056L135.579 5.10645H145.673Z" fill="black"/>
<path d="M46.1605 34.4956L45.0289 20.9971H48.1318L48.8558 30.4472L53.1451 20.9971H55.664L56.6192 30.4593L60.6408 20.9971H64.0175L57.8847 34.4956H54.3498L53.5345 26.5681L49.9327 34.4956H46.1605Z" fill="black"/>
<path d="M69.0308 34.7679C67.0656 34.7679 65.502 34.0609 64.3399 32.647C63.184 31.2331 62.7824 29.5353 63.1474 27.5534C63.5003 25.5473 64.4251 23.9099 65.934 22.635C67.4429 21.36 69.2498 20.7256 71.361 20.7256C73.3019 20.7256 74.8533 21.4325 76.0093 22.8464C77.1653 24.2603 77.573 25.9582 77.2262 27.9401C76.8611 29.9461 75.9302 31.5836 74.4275 32.8585C72.9308 34.1334 71.1298 34.7679 69.0308 34.7679ZM69.3654 31.7588C70.5032 31.7588 71.5314 31.3842 72.444 30.641C73.3566 29.8978 73.9164 28.931 74.1233 27.7467C74.3301 26.5624 74.1233 25.6017 73.5088 24.8525C72.8943 24.1093 72.0242 23.7346 70.8987 23.7346C69.7731 23.7346 68.7692 24.1093 67.887 24.8525C67.0048 25.5957 66.4633 26.5624 66.2564 27.7467C66.0496 28.9431 66.2382 29.9099 66.8162 30.647C67.4003 31.3902 68.252 31.7588 69.3654 31.7588Z" fill="black"/>
<path d="M89.4795 25.8188C89.3091 26.7191 88.9501 27.4986 88.3904 28.1632C87.8307 28.8279 87.1432 29.3173 86.3096 29.6376L88.287 34.4956H85.1415L83.3771 30.0605L81.6857 30.0726L80.8947 34.4956H77.7979L80.2072 20.9971H85.4335C86.7233 20.9971 87.782 21.4805 88.5973 22.4533C89.4186 23.4261 89.7107 24.5439 89.4795 25.8188ZM85.7195 26.8883C86.0602 26.556 86.2792 26.1391 86.3705 25.6376C86.4617 25.136 86.3766 24.7191 86.1089 24.3868C85.8411 24.0545 85.4518 23.8913 84.9346 23.8913H82.7991L82.1724 27.3838H84.5026C84.9711 27.3838 85.3788 27.2146 85.7195 26.8883Z" fill="black"/>
<path d="M93.3736 31.5296H98.2288L97.7055 34.5024H89.7535L90.2829 31.5175L92.1507 21.0039H95.2475L93.3736 31.5296Z" fill="black"/>
<path d="M106.911 20.9971C108.699 20.9971 110.129 21.6799 111.212 23.0394C112.295 24.4049 112.666 26.0363 112.325 27.9397C111.991 29.8551 111.096 31.4261 109.648 32.6527C108.2 33.8792 106.491 34.4956 104.52 34.4956H99.0681L101.471 20.9971H106.911ZM109.326 27.6496C109.533 26.5076 109.362 25.6073 108.821 24.9487C108.28 24.2901 107.464 23.9638 106.375 23.9638H104.045L102.694 31.5228H104.836C105.986 31.5228 106.971 31.1723 107.787 30.4593C108.608 29.7584 109.119 28.8218 109.326 27.6496Z" fill="black"/>
<path d="M129.422 25.8188C129.252 26.7191 128.893 27.4986 128.333 28.1632C127.773 28.8279 127.086 29.3173 126.252 29.6376L128.23 34.4956H125.084L123.32 30.0605L121.628 30.0726L120.837 34.4956H117.741L120.15 20.9971H125.376C126.666 20.9971 127.725 21.4805 128.54 22.4533C129.361 23.4261 129.653 24.5439 129.422 25.8188ZM125.662 26.8883C126.003 26.556 126.222 26.1391 126.313 25.6376C126.404 25.136 126.319 24.7191 126.052 24.3868C125.784 24.0545 125.394 23.8913 124.877 23.8913H122.742L122.115 27.3838H124.445C124.914 27.3838 125.321 27.2146 125.662 26.8883Z" fill="black"/>
<path d="M138.548 34.4956L138.195 32.3747H132.981L131.898 34.4956H128.534L135.464 20.9971H139.503L141.736 34.4956H138.548ZM134.46 29.4805H137.715L137.076 24.3687L134.46 29.4805Z" fill="black"/>
<path d="M150.741 20.9971C152.53 20.9971 153.959 21.6799 155.042 23.0394C156.125 24.4049 156.496 26.0363 156.156 27.9397C155.821 29.8551 154.927 31.4261 153.479 32.6527C152.031 33.8792 150.321 34.4956 148.35 34.4956H142.898L145.302 20.9971H150.741ZM153.15 27.6496C153.357 26.5076 153.187 25.6073 152.645 24.9487C152.104 24.2901 151.288 23.9638 150.199 23.9638H147.869L146.518 31.5228H148.66C149.81 31.5228 150.796 31.1723 151.611 30.4593C152.432 29.7584 152.943 28.8218 153.15 27.6496Z" fill="black"/>
<path d="M159.125 20.9971H162.222L159.825 34.4956H156.728L159.125 20.9971Z" fill="black"/>
<path d="M168.683 34.7679C166.718 34.7679 165.154 34.0609 163.992 32.647C162.836 31.2331 162.435 29.5353 162.8 27.5534C163.153 25.5473 164.077 23.9099 165.586 22.635C167.095 21.36 168.902 20.7256 171.013 20.7256C172.954 20.7256 174.506 21.4325 175.662 22.8464C176.818 24.2603 177.225 25.9582 176.878 27.9401C176.513 29.9461 175.583 31.5836 174.08 32.8585C172.583 34.1334 170.782 34.7679 168.683 34.7679ZM169.018 31.7588C170.155 31.7588 171.184 31.3842 172.096 30.641C173.009 29.8978 173.569 28.931 173.776 27.7467C173.982 26.5624 173.776 25.6017 173.161 24.8525C172.547 24.1093 171.677 23.7346 170.551 23.7346C169.425 23.7346 168.421 24.1093 167.539 24.8525C166.657 25.5957 166.116 26.5624 165.909 27.7467C165.702 28.9431 165.89 29.9099 166.468 30.647C167.053 31.3902 167.904 31.7588 169.018 31.7588Z" fill="black"/>
<path d="M20.1324 39.9879C31.2513 39.9879 40.2649 31.0363 40.2649 19.994C40.2649 8.9516 31.2513 0 20.1324 0C9.0136 0 0 8.9516 0 19.994C0 31.0363 9.0136 39.9879 20.1324 39.9879Z" fill="white"/>
<path d="M2.13554 28.8946C2.23288 28.8946 2.31806 28.8946 2.40932 28.8946C8.06758 28.8946 13.7258 28.8885 19.378 28.9006C21.2458 28.9066 23.0042 29.3236 24.5434 30.4353C25.7724 31.3175 26.606 32.5078 27.2144 33.8674C27.2935 34.0486 27.3422 34.2964 27.6159 34.2359C27.8897 34.1816 27.8715 33.9338 27.8715 33.7224C27.8715 29.813 27.8715 25.9097 27.8715 22.0003C27.8715 21.9459 27.8897 21.8855 27.8654 21.8432C27.7924 21.7163 27.7315 21.5411 27.6159 21.4867C27.4395 21.4081 27.3361 21.5713 27.2691 21.7223C26.8067 22.7858 26.2105 23.7526 25.377 24.5743C24.2027 25.7344 22.773 26.393 21.1546 26.6468C20.4488 26.7556 19.7248 26.81 19.0069 26.81C13.1843 26.8281 7.36182 26.822 1.5332 26.8281C1.28375 26.8281 1.16816 26.7556 1.08298 26.5199C0.511068 24.822 0.152104 23.0879 0.0486732 21.2994C0.0365049 21.0214 0.0182524 20.7435 0 20.4353C0.133851 20.4353 0.225113 20.4353 0.32246 20.4353C9.07146 20.4353 17.8144 20.4233 26.5634 20.4414C28.5529 20.4474 30.4086 20.9429 31.9904 22.2178C33.0552 23.0758 33.7914 24.1755 34.345 25.4081C34.3754 25.4807 34.3937 25.5713 34.4484 25.6196C34.5275 25.6921 34.637 25.7767 34.7283 25.7707C34.8135 25.7586 34.9169 25.6559 34.9656 25.5652C35.0143 25.4807 35.0082 25.3598 35.0082 25.2571C35.0082 21.3477 35.0082 17.4444 35.0082 13.535C35.0082 13.4807 35.0264 13.4202 35.0021 13.3779C34.9291 13.251 34.8622 13.0698 34.7466 13.0214C34.5701 12.9429 34.4728 13.1121 34.4058 13.2692C33.9495 14.3024 33.3715 15.2571 32.5684 16.0607C31.4003 17.239 29.9644 17.9157 28.34 18.1755C27.6342 18.2903 26.9102 18.3447 26.1983 18.3507C17.6258 18.3628 9.05929 18.3568 0.486732 18.3568C0.365049 18.3568 0.243366 18.3568 0.0730098 18.3568C0.127767 17.8794 0.170356 17.4263 0.237282 16.9791C0.492816 15.3115 0.955211 13.6982 1.61838 12.1393C1.68531 11.9761 1.7644 11.8976 1.96518 11.8976C5.57308 11.9097 9.17489 11.8794 12.7828 11.9217C14.8818 11.9459 16.8105 12.526 18.3985 13.9761C19.2867 14.7918 19.9256 15.7767 20.4184 16.8643C20.4549 16.9429 20.4732 17.0456 20.534 17.1C20.6131 17.1725 20.7348 17.2631 20.8139 17.245C20.9112 17.2208 21.0025 17.106 21.0633 17.0094C21.0998 16.9429 21.0816 16.8402 21.0816 16.7495C21.0816 12.8341 21.0816 8.91872 21.0816 5.00331C21.0816 4.96102 21.0816 4.91268 21.0816 4.87038C21.0816 4.68911 21.0329 4.52597 20.8321 4.48972C20.6374 4.45346 20.5522 4.59848 20.4853 4.75558C19.9438 6.00029 19.2137 7.11812 18.1551 7.99425C16.9687 8.97914 15.5937 9.52295 14.0726 9.7163C13.379 9.80089 12.6733 9.83715 11.9736 9.83715C9.04104 9.84923 6.11457 9.84319 3.18201 9.84319C3.07858 9.84319 2.97515 9.84319 2.80479 9.84319C4.58136 6.90059 6.89334 4.56827 9.80156 2.84621C13.8536 0.44742 18.2403 -0.428713 22.9129 0.193643C32.8848 1.51691 40.5873 10.1634 40.277 20.5864C39.9789 30.6649 32.3372 38.6227 22.779 39.8311C12.6003 41.1121 4.95858 34.9369 2.13554 28.8946Z" fill="#0F46C1"/>
</svg>
