<svg width="212" height="39" viewBox="0 0 212 39" fill="none" xmlns="http://www.w3.org/2000/svg">
<path d="M2.18314 27.5797C2.2758 27.5797 2.35688 27.5797 2.44375 27.5797C7.82966 27.5797 13.2156 27.574 18.5957 27.5855C20.3736 27.5912 22.0473 27.9881 23.5125 29.0463C24.6824 29.8861 25.4758 31.0191 26.0549 32.3132C26.1302 32.4857 26.1765 32.7215 26.4371 32.664C26.6977 32.6123 26.6804 32.3764 26.6804 32.1751C26.6804 28.4539 26.6804 24.7385 26.6804 21.0173C26.6804 20.9655 26.6977 20.908 26.6746 20.8678C26.6051 20.747 26.5472 20.5802 26.4371 20.5284C26.2692 20.4537 26.1707 20.6089 26.107 20.7527C25.6669 21.765 25.0993 22.6852 24.3059 23.4674C23.1882 24.5717 21.8272 25.1986 20.2868 25.4402C19.615 25.5437 18.9258 25.5955 18.2424 25.5955C12.7001 25.6127 7.15787 25.607 1.6098 25.6127C1.37236 25.6127 1.26232 25.5437 1.18124 25.3194C0.63686 23.7032 0.295173 22.0526 0.196721 20.3501C0.185138 20.0856 0.167765 19.821 0.150391 19.5277C0.277799 19.5277 0.364669 19.5277 0.45733 19.5277C8.78522 19.5277 17.1073 19.5162 25.4352 19.5334C27.329 19.5392 29.0953 20.0108 30.6011 21.2244C31.6145 22.0411 32.3153 23.0878 32.8423 24.2611C32.8713 24.3301 32.8886 24.4164 32.9408 24.4624C33.016 24.5314 33.1203 24.612 33.2071 24.6062C33.2882 24.5947 33.3867 24.4969 33.433 24.4107C33.4793 24.3301 33.4736 24.2151 33.4736 24.1173C33.4736 20.3961 33.4736 16.6807 33.4736 12.9595C33.4736 12.9077 33.4909 12.8502 33.4678 12.81C33.3983 12.6892 33.3346 12.5166 33.2245 12.4706C33.0566 12.3958 32.9639 12.5569 32.9002 12.7064C32.4659 13.6899 31.9157 14.5987 31.1512 15.3636C30.0393 16.4851 28.6726 17.1293 27.1263 17.3766C26.4545 17.4859 25.7653 17.5377 25.0877 17.5434C16.9278 17.5549 8.77364 17.5492 0.613695 17.5492C0.497869 17.5492 0.382043 17.5492 0.219886 17.5492C0.272008 17.0948 0.312547 16.6634 0.376251 16.2378C0.619486 14.6504 1.05963 13.1148 1.69088 11.6309C1.75458 11.4756 1.82987 11.4008 2.02098 11.4008C5.45522 11.4123 8.88368 11.3836 12.3179 11.4238C14.3159 11.4469 16.1518 11.999 17.6633 13.3793C18.5088 14.1558 19.1169 15.0933 19.586 16.1285C19.6208 16.2033 19.6381 16.3011 19.696 16.3529C19.7713 16.4219 19.8872 16.5081 19.9624 16.4909C20.0551 16.4679 20.142 16.3586 20.1999 16.2666C20.2346 16.2033 20.2173 16.1055 20.2173 16.0193C20.2173 12.2923 20.2173 8.56537 20.2173 4.83842C20.2173 4.79816 20.2173 4.75215 20.2173 4.71189C20.2173 4.53934 20.1709 4.38405 19.9798 4.34954C19.7945 4.31503 19.7134 4.45307 19.6497 4.60261C19.1343 5.78741 18.4393 6.85143 17.4316 7.6854C16.3023 8.62288 14.9935 9.14052 13.5457 9.32456C12.8855 9.40508 12.2137 9.43959 11.5477 9.43959C8.75627 9.4511 5.97065 9.44534 3.17924 9.44534C3.08079 9.44534 2.98234 9.44534 2.82018 9.44534C4.51124 6.64438 6.71194 4.42431 9.48018 2.78514C13.3372 0.501812 17.5127 -0.332151 21.9604 0.26025C31.4524 1.51982 38.7842 9.75017 38.4888 19.6715C38.205 29.2649 30.9312 36.8396 21.833 37.9899C12.1442 39.2092 4.8703 33.3312 2.18314 27.5797Z" fill="#0F46C1"/>
<path d="M61.6812 31.1246L61.1873 27.2439H52.0147L50.0391 31.1246H43.8652L56.601 6.4292H63.798L67.8551 31.1246H61.6812ZM54.6607 21.952H60.5523L59.3881 12.6031L54.6607 21.952Z" fill="#0F46C1"/>
<path d="M73.2486 31.1246L70.7791 6.4292H76.4238L77.7291 23.716L85.5258 6.4292H90.1121L91.8408 23.716L99.1436 6.4292H105.282L94.1339 31.1246H87.7131L86.2314 16.5543L79.6695 31.1246H73.2486Z" fill="#0F46C1"/>
<path d="M124.617 15.249C124.311 16.8954 123.652 18.33 122.641 19.5531C121.63 20.7525 120.372 21.6463 118.866 22.2343L122.465 31.1246H116.75L113.539 23.0104H110.47L109.059 31.1246H103.414L107.753 6.4292H117.279C119.631 6.4292 121.547 7.32294 123.029 9.11042C124.511 10.8744 125.04 12.9206 124.617 15.249ZM117.773 17.1893C118.408 16.5778 118.807 15.8135 118.972 14.8962C119.137 13.9789 118.972 13.2263 118.478 12.6383C118.008 12.0268 117.302 11.7211 116.361 11.7211H112.481L111.352 18.0713H115.585C116.432 18.0713 117.161 17.7773 117.773 17.1893Z" fill="#0F46C1"/>
<path d="M144.223 6.26422L142.489 16.4033H141.192L142.545 8.52378L138.386 13.9989H138.216L135.932 8.39342L134.564 16.4033H133.253L134.987 6.26422H136.426L138.597 11.6814L142.686 6.26422H144.223Z" fill="black"/>
<path d="M151.946 7.53885H147.434L146.898 10.653H151.058L150.832 11.9131H146.672L146.122 15.1286H150.705L150.494 16.4033H144.6L146.334 6.26422H152.158L151.946 7.53885Z" fill="black"/>
<path d="M152.077 16.4033L153.811 6.26422H154.812L158.662 13.8685L159.945 6.26422H161.256L159.522 16.4033H158.521L154.685 8.79899L153.388 16.4033H152.077Z" fill="black"/>
<path d="M169.685 6.26422L169.473 7.53885H166.554L165.031 16.4033H163.734L165.257 7.53885H162.352L162.564 6.26422H169.685Z" fill="black"/>
<path d="M173.294 16.5916C171.875 16.5916 170.747 16.0556 169.91 14.9838C169.074 13.912 168.787 12.647 169.05 11.1889C169.295 9.72116 169.976 8.50447 171.095 7.53885C172.213 6.56357 173.511 6.07593 174.986 6.07593C176.406 6.07593 177.534 6.62151 178.371 7.71266C179.207 8.79416 179.503 10.0688 179.259 11.5365C179.005 13.0043 178.319 14.2161 177.2 15.1721C176.091 16.1184 174.789 16.5916 173.294 16.5916ZM173.478 15.2735C174.587 15.2735 175.56 14.9066 176.397 14.1727C177.243 13.4388 177.76 12.5118 177.948 11.3917C178.136 10.2716 177.929 9.32525 177.327 8.55275C176.726 7.7706 175.875 7.37952 174.775 7.37952C173.675 7.37952 172.707 7.75611 171.87 8.5093C171.043 9.26249 170.535 10.204 170.347 11.3337C170.159 12.4442 170.361 13.3809 170.954 14.1437C171.546 14.8969 172.387 15.2735 173.478 15.2735Z" fill="black"/>
<path d="M188.209 9.55217C188.087 10.2378 187.8 10.8316 187.349 11.3337C186.898 11.8262 186.348 12.169 185.699 12.3621L187.307 16.4033H185.953L184.43 12.5215H181.977L181.314 16.4033H180.003L181.737 6.26422H185.657C186.475 6.26422 187.142 6.59736 187.659 7.26365C188.176 7.92027 188.36 8.68311 188.209 9.55217ZM186.926 9.40733C187.02 8.88589 186.921 8.44171 186.63 8.07477C186.338 7.70783 185.944 7.52436 185.445 7.52436H182.837L182.188 11.3048H184.825C185.333 11.3048 185.788 11.1213 186.193 10.7544C186.597 10.3778 186.841 9.92877 186.926 9.40733Z" fill="black"/>
<path d="M190.357 6.26422H191.668L189.934 16.4033H188.623L190.357 6.26422Z" fill="black"/>
<path d="M192.051 16.4033L193.786 6.26422H194.787L198.636 13.8685L199.92 6.26422H201.231L199.497 16.4033H198.495L194.66 8.79899L193.363 16.4033H192.051Z" fill="black"/>
<path d="M212 11.3772L211.901 11.9711C211.676 13.3036 211.06 14.4093 210.054 15.288C209.048 16.157 207.831 16.5916 206.402 16.5916C204.86 16.5916 203.671 16.0605 202.835 14.9983C201.998 13.9264 201.711 12.6373 201.974 11.131C202.228 9.67288 202.905 8.46585 204.005 7.50988C205.114 6.55391 206.393 6.07593 207.84 6.07593C208.799 6.07593 209.626 6.29802 210.322 6.74221C211.018 7.1864 211.549 7.79957 211.915 8.58172L210.745 9.21903C210.134 7.99269 209.138 7.37952 207.756 7.37952C206.618 7.37952 205.631 7.75129 204.795 8.49482C203.958 9.22869 203.446 10.1653 203.258 11.3048C203.07 12.4442 203.267 13.3905 203.85 14.1437C204.433 14.8969 205.312 15.2735 206.487 15.2735C207.474 15.2735 208.31 15.0273 208.997 14.5348C209.692 14.0327 210.172 13.3857 210.435 12.5939H206.839L207.051 11.3772H212Z" fill="black"/>
<path d="M140.12 25.8616L140.021 26.4554C139.796 27.788 139.18 28.8936 138.174 29.7723C137.168 30.6414 135.951 31.0759 134.522 31.0759C132.98 31.0759 131.791 30.5448 130.955 29.4826C130.118 28.4108 129.831 27.1217 130.094 25.6153C130.348 24.1572 131.025 22.9502 132.125 21.9942C133.234 21.0383 134.513 20.5603 135.96 20.5603C136.919 20.5603 137.746 20.7824 138.442 21.2266C139.138 21.6707 139.669 22.2839 140.035 23.0661L138.865 23.7034C138.254 22.477 137.258 21.8639 135.876 21.8639C134.738 21.8639 133.751 22.2356 132.915 22.9792C132.078 23.713 131.566 24.6497 131.378 25.7891C131.19 26.9286 131.387 27.8749 131.97 28.6281C132.553 29.3813 133.432 29.7578 134.607 29.7578C135.594 29.7578 136.43 29.5116 137.117 29.0191C137.812 28.517 138.292 27.8701 138.555 27.0782H134.959L135.171 25.8616H140.12Z" fill="black"/>
<path d="M149.061 24.0365C148.938 24.7221 148.652 25.316 148.201 25.8181C147.749 26.3106 147.199 26.6534 146.551 26.8465L148.158 30.8876H146.805L145.282 27.0058H142.828L142.165 30.8876H140.854L142.588 20.7486H146.508C147.326 20.7486 147.994 21.0817 148.511 21.748C149.028 22.4046 149.211 23.1675 149.061 24.0365ZM147.778 23.8917C147.872 23.3702 147.773 22.9261 147.481 22.5591C147.19 22.1922 146.795 22.0087 146.297 22.0087H143.688L143.04 25.7891H145.677C146.184 25.7891 146.64 25.6057 147.044 25.2387C147.449 24.8621 147.693 24.4131 147.778 23.8917Z" fill="black"/>
<path d="M154.044 31.0759C152.624 31.0759 151.496 30.54 150.66 29.4682C149.823 28.3963 149.536 27.1314 149.8 25.6733C150.044 24.2055 150.725 22.9888 151.844 22.0232C152.963 21.0479 154.26 20.5603 155.736 20.5603C157.155 20.5603 158.283 21.1059 159.12 22.197C159.957 23.2785 160.253 24.5531 160.008 26.0209C159.755 27.4886 159.068 28.7005 157.95 29.6565C156.84 30.6028 155.538 31.0759 154.044 31.0759ZM154.227 29.7578C155.336 29.7578 156.309 29.3909 157.146 28.657C157.992 27.9232 158.509 26.9962 158.697 25.876C158.885 24.7559 158.678 23.8096 158.077 23.0371C157.475 22.255 156.624 21.8639 155.524 21.8639C154.425 21.8639 153.456 22.2405 152.62 22.9937C151.792 23.7468 151.285 24.6883 151.097 25.8181C150.909 26.9286 151.111 27.8652 151.703 28.6281C152.295 29.3813 153.137 29.7578 154.227 29.7578Z" fill="black"/>
<path d="M164.377 31.0759C163.249 31.0759 162.38 30.7428 161.769 30.0765C161.167 29.4102 160.956 28.546 161.134 27.4838L162.276 20.7486H163.588L162.446 27.4259C162.323 28.1308 162.427 28.6957 162.756 29.1205C163.094 29.5454 163.649 29.7578 164.42 29.7578C165.2 29.7578 165.835 29.5454 166.323 29.1205C166.812 28.686 167.118 28.1211 167.24 27.4259L168.382 20.7486H169.679L168.537 27.4838C168.34 28.6136 167.865 29.4971 167.113 30.1344C166.361 30.7621 165.449 31.0759 164.377 31.0759Z" fill="black"/>
<path d="M175.14 20.7486C176.099 20.7486 176.827 21.0624 177.326 21.6901C177.833 22.3177 178.012 23.0999 177.861 24.0365C177.711 24.9828 177.283 25.7602 176.578 26.3685C175.883 26.9672 174.99 27.2665 173.899 27.2665H171.855L171.234 30.8876H169.923L171.657 20.7486H175.14ZM176.578 23.8917C176.682 23.3123 176.588 22.8536 176.296 22.5157C176.005 22.1777 175.563 22.0087 174.971 22.0087H172.757L172.066 26.0064H174.04C174.726 26.0064 175.295 25.8084 175.746 25.4125C176.198 25.0166 176.475 24.5097 176.578 23.8917Z" fill="black"/>
<path d="M181.293 31.0759C180.353 31.0759 179.577 30.8587 178.966 30.4241C178.364 29.9799 177.97 29.3668 177.782 28.5846L178.938 27.9618C179.192 29.1688 180 29.7723 181.363 29.7723C182.002 29.7723 182.524 29.642 182.928 29.3813C183.342 29.1109 183.596 28.7488 183.69 28.2949C183.746 28.0246 183.732 27.788 183.647 27.5852C183.572 27.3728 183.417 27.1893 183.182 27.0348C182.947 26.8803 182.726 26.7596 182.519 26.6727C182.313 26.5761 182.021 26.4651 181.645 26.3395C181.232 26.1947 180.879 26.0499 180.588 25.905C180.306 25.7505 180.019 25.5526 179.727 25.3112C179.436 25.0601 179.234 24.7559 179.121 24.3986C179.018 24.0317 179.008 23.6165 179.093 23.153C179.253 22.3129 179.662 21.6707 180.32 21.2266C180.978 20.7824 181.711 20.5603 182.519 20.5603C183.328 20.5603 183.995 20.7631 184.522 21.1686C185.058 21.5742 185.438 22.1053 185.664 22.7619L184.508 23.3702C184.15 22.366 183.455 21.8639 182.421 21.8639C181.932 21.8639 181.495 21.9894 181.109 22.2405C180.733 22.4819 180.498 22.8198 180.404 23.2544C180.357 23.4765 180.362 23.6792 180.418 23.8627C180.475 24.0365 180.555 24.1862 180.658 24.3117C180.762 24.4373 180.917 24.5628 181.123 24.6883C181.34 24.8042 181.532 24.9008 181.702 24.978C181.871 25.0456 182.101 25.1325 182.392 25.2387C182.731 25.3643 182.999 25.4705 183.196 25.5574C183.394 25.6346 183.643 25.7698 183.944 25.9629C184.244 26.1464 184.47 26.3395 184.62 26.5423C184.78 26.7451 184.902 27.0107 184.987 27.339C185.072 27.6673 185.076 28.0342 185.001 28.4398C184.841 29.2895 184.418 29.9413 183.732 30.3952C183.055 30.849 182.242 31.0759 181.293 31.0759Z" fill="black"/>
</svg>
