<svg xmlns="http://www.w3.org/2000/svg" >
    <symbol xmlns="http://www.w3.org/2000/svg" id="pray-hands">
        <svg width="82" height="83" viewBox="0 0 82 83" fill="none" xmlns="http://www.w3.org/2000/svg">
            <path opacity="0.2" d="M65.7154 7.84742C51.963 -2.06816 32.0042 -2.64953 17.6856 6.45859C-17.1689 28.626 4.31439 76.6212 40.4429 82.478C81.6999 89.1637 96.1927 29.821 65.7154 7.84742Z" fill="#FEABB3"/>
            <path d="M64.8792 59.1001L56.0699 47.8609C55.1035 46.7253 54.7219 45.2535 55.0256 43.8212L56.7377 35.7639C57.0096 34.4844 56.7305 33.1552 55.9613 32.0692L47.1894 19.3095C47.0716 19.1378 46.8776 19.0253 46.6614 19.0038C46.4456 18.9821 46.2309 19.0538 46.0773 19.198C46.0402 19.233 46.0086 19.2628 45.9848 19.2852C44.0759 21.0822 43.6338 23.6803 44.5541 25.8458L46.7656 31.4239C47.1703 31.3495 47.5859 31.305 48.0131 31.305C48.7357 31.305 49.3201 31.8552 49.3201 32.5355V36.4384C49.3201 37.4705 49.5499 38.469 50.0043 39.4088C50.3031 40.0276 50.0131 40.7569 49.3559 41.0379C48.7023 41.324 47.9263 41.0453 47.625 40.4278C47.0151 39.1659 46.706 37.8239 46.706 36.4384V33.9761C45.1845 34.4847 44.0919 35.8533 44.0919 37.4573V41.1488C44.0919 44.3704 45.0225 47.5305 46.7816 50.2908L51.5843 60.2838C51.7974 60.7203 52.2613 61 52.7719 61H63.7828C64.819 61 65.4432 59.9189 64.8792 59.1001Z" fill="#FEABB3"/>
            <path d="M41.2267 37.4573C41.2267 35.8532 40.1838 34.4846 38.7315 33.9761V36.4383C38.7315 37.8239 38.4368 39.1659 37.8542 40.4277C37.568 41.0452 36.8308 41.3217 36.2024 41.0382C35.5747 40.7568 35.2982 40.0275 35.5834 39.4088C36.0172 38.4689 36.2365 37.4704 36.2365 36.4383V32.5354C36.2365 31.8554 36.7944 31.3049 37.4841 31.3049C37.8919 31.3049 38.2886 31.3498 38.6749 31.4238L40.7858 25.846C41.6644 23.6802 41.242 21.0821 39.4199 19.2851C39.3975 19.263 39.3673 19.2329 39.3319 19.1983C39.1854 19.0537 38.9803 18.9823 38.774 19.0038C38.568 19.0255 38.3828 19.138 38.2701 19.3094L29.8969 32.0692C29.163 33.1551 28.8965 34.4843 29.1558 35.7638L30.7901 43.8208C31.0799 45.2532 30.7157 46.7252 29.7936 47.8609L21.3844 59.1001C20.8463 59.9188 21.4422 61 22.4312 61H32.9416C33.429 61 33.8715 60.7203 34.0752 60.2838L38.6597 50.2907C40.3388 47.5305 41.2267 44.3704 41.2267 41.1487V37.4573Z" fill="#FEABB3"/>
        </svg>
    </symbol>
    <symbol xmlns="http://www.w3.org/2000/svg" id="bible-closed">
        <svg width="84" height="83" viewBox="0 0 84 83" fill="none" xmlns="http://www.w3.org/2000/svg">
            <path opacity="0.2" d="M75.6526 66.2154C85.5682 52.463 86.1495 32.5042 77.0414 18.1856C54.874 -16.6689 6.87876 4.81439 1.02201 40.9429C-5.66373 82.1999 53.679 96.6927 75.6526 66.2154Z" fill="#FFE176"/>
            <path d="M21.6123 59.9601C33.2223 59.9601 41.476 65.2586 42.1377 65.5001V37.5547C41.4761 37.3132 33.2224 32.6232 21.6123 32.6232C20.8493 32.6232 20.25 33.2225 20.25 33.9855V58.5978C20.25 59.3608 20.8493 59.9601 21.6123 59.9601Z" fill="#FFE176"/>
            <path d="M43.499 30.4492C44.252 30.4492 44.8613 29.8399 44.8613 29.0869V26.3623C44.8613 25.6093 44.252 25 43.499 25C42.746 25 42.1367 25.6093 42.1367 26.3623V29.0869C42.1367 29.8399 42.746 30.4492 43.499 30.4492Z" fill="#FFE176"/>
            <path d="M37.0885 30.0501C37.6207 30.5822 38.4828 30.5822 39.0149 30.0501C39.547 29.518 39.547 28.6558 39.0149 28.1237L36.2903 25.3991C35.7582 24.867 34.896 24.867 34.3639 25.3991C33.8318 25.9312 33.8318 26.7934 34.3639 27.3255L37.0885 30.0501Z" fill="#FFE176"/>
            <path d="M49.9114 30.0501L52.636 27.3255C53.1681 26.7934 53.1681 25.9312 52.636 25.3991C52.1039 24.867 51.2417 24.867 50.7096 25.3991L47.985 28.1237C47.4529 28.6558 47.4529 29.518 47.985 30.0501C48.5171 30.5822 49.3793 30.5823 49.9114 30.0501Z" fill="#FFE176"/>
            <path d="M65.3887 32.6232C54.1283 32.6232 46.7419 36.8692 44.8633 37.5547V65.5001C45.525 65.2586 53.7787 59.9601 65.3887 59.9601C66.1516 59.9601 66.751 59.3608 66.751 58.5978V33.9855C66.751 33.2225 66.1516 32.6232 65.3887 32.6232ZM61.3744 45.3017C59.9305 45.4652 58.5409 45.7105 57.124 46.0101V54.5109C57.124 55.2738 56.5247 55.8732 55.7617 55.8732C54.9987 55.8732 54.3994 55.2738 54.3994 54.5109V46.7185C53.1733 47.0454 51.9745 47.4269 50.8029 47.8901C50.0945 48.1352 49.3044 47.7812 49.032 47.0727C48.7595 46.3915 49.1137 45.6013 49.8221 45.3289C51.3206 44.7567 52.8464 44.2936 54.3994 43.8848V40.8878C54.3994 40.1248 54.9987 39.5255 55.7617 39.5255C56.5247 39.5255 57.124 40.1248 57.124 40.8878V43.231C58.4317 42.9586 59.7397 42.7406 61.0475 42.5771C61.7832 42.4954 62.4643 43.0402 62.5732 43.7759C62.6551 44.5116 62.1101 45.1928 61.3744 45.3017Z" fill="#FFE176"/>
        </svg>
    </symbol>
    <symbol xmlns="http://www.w3.org/2000/svg" id="answers">
        <svg width="83" height="83" viewBox="0 0 83 83" fill="none" xmlns="http://www.w3.org/2000/svg">
            <path opacity="0.2" d="M16.7846 7.84742C30.537 -2.06815 50.4958 -2.64952 64.8144 6.4586C99.6689 28.626 78.1856 76.6212 42.0571 82.478C0.800104 89.1637 -13.6927 29.821 16.7846 7.84742Z" fill="#B4DDE9"/>
            <path d="M41 19C34.5728 19 29.3984 24.1885 29.3984 30.6016C29.3984 34.6261 31.5536 38.4278 35.028 40.5251C37.2663 41.8645 38.9443 43.9568 39.8419 46.6356C40.0572 47.0787 40.5531 47.2512 41.0454 47.2512C41.5388 47.2512 42.0349 46.8622 42.2501 46.419C43.0558 43.9568 44.7338 41.8645 46.9771 40.5226C50.4464 38.4278 52.6016 34.6261 52.6016 30.6016C52.6016 24.2355 47.4609 19 41 19ZM41 37.0469C40.2881 37.0469 39.7109 36.4697 39.7109 35.7578C39.7109 35.0459 40.2881 34.4688 41 34.4688C41.7119 34.4688 42.2891 35.0459 42.2891 35.7578C42.2891 36.4697 41.7119 37.0469 41 37.0469ZM42.3054 31.6653C42.3054 32.3765 41.72 33.0664 41.0088 33.0664C40.2963 33.0664 39.7109 32.6031 39.7109 31.8906C39.7109 30.5902 40.4045 29.6071 41.4354 29.2382C41.9454 29.0544 42.2891 28.5673 42.2891 28.0234C42.2891 27.3122 41.7112 26.7344 41 26.7344C40.2888 26.7344 39.7109 27.3122 39.7109 28.0234C39.7109 28.7359 39.1344 29.3125 38.4219 29.3125C37.7094 29.3125 37.1328 28.7359 37.1328 28.0234C37.1328 25.891 38.8675 24.1562 41 24.1562C43.1325 24.1562 44.8672 25.891 44.8672 28.0234C44.8672 29.6511 43.8375 31.1152 42.3054 31.6653Z" fill="#B4DDE9"/>
            <path d="M61.7109 31.8906H60.4219V53.9766C60.4219 56.109 58.6871 57.8438 56.5547 57.8438H44.6469C44.1145 59.3443 42.6806 60.4219 41 60.4219C39.3194 60.4219 37.8856 59.3443 37.3531 57.8438H25.4453C23.3129 57.8438 21.5781 56.109 21.5781 53.9766V31.8906H20.2891C19.5766 31.8906 19 32.4672 19 33.1797V59.1328C19 59.8453 19.5766 60.4219 20.2891 60.4219H35.31L37.5104 62.6223C37.7522 62.864 38.0795 63 38.4219 63H43.5781C43.9205 63 44.2478 62.864 44.4895 62.6223L46.69 60.4219H61.7109C62.4234 60.4219 63 59.8453 63 59.1328V33.1797C63 32.4672 62.4234 31.8906 61.7109 31.8906Z" fill="#B4DDE9"/>
            <path d="M37.45 47.6124C37.3675 47.4552 36.6565 44.5034 33.7036 42.7369C29.4551 40.1726 26.8203 35.5236 26.8203 30.6016C26.8203 29.3087 26.9764 28.1229 27.2986 26.9773C27.32 26.893 27.36 26.8179 27.3829 26.7344H25.5312C24.8187 26.7344 24.2422 27.3109 24.2422 28.0234V53.9766C24.2422 54.6891 24.8187 55.2656 25.5312 55.2656H38.4219C39.1331 55.2656 39.7109 55.8435 39.7109 56.5547V49.6031C37.9828 49.047 37.4922 47.667 37.45 47.6124Z" fill="#B4DDE9"/>
            <path d="M56.4688 26.7344H54.609C54.6414 26.8497 54.6957 26.9539 54.7253 27.0705C55.0248 28.1291 55.1797 29.3062 55.1797 30.6016C55.1797 35.5236 52.5474 40.1713 48.3101 42.7293C45.3532 44.4978 44.7801 47.1498 44.5688 47.5457C44.101 48.5089 43.2513 49.2283 42.2891 49.5811V56.5547C42.2891 55.8435 42.8669 55.2656 43.5781 55.2656H56.4688C57.1813 55.2656 57.7578 54.6891 57.7578 53.9766V28.0234C57.7578 27.3109 57.1813 26.7344 56.4688 26.7344Z" fill="#B4DDE9"/>
        </svg>
    </symbol>

    <symbol xmlns="http://www.w3.org/2000/svg" id="email">
        <svg width="48" height="48" viewBox="0 0 48 48" fill="none" xmlns="http://www.w3.org/2000/svg">
            <circle cx="24" cy="24" r="23.5" stroke="#F44336"/>
            <path d="M11.038 18.5933C12.6421 19.5905 14.162 20.5353 15.6806 21.4802C18.1734 23.0307 20.676 24.5658 23.1527 26.1401C23.7517 26.5209 24.2233 26.54 24.8347 26.1544C28.6469 23.7542 32.4801 21.385 36.3058 19.0062C36.494 18.8896 36.6846 18.7765 36.9494 18.6159C36.9692 18.842 36.9952 19.005 36.9952 19.168C36.9977 23.0152 37.0039 26.8624 36.9965 30.7085C36.9927 32.7148 35.6771 33.9928 33.5977 33.9952C27.1418 34.0023 20.6859 34.0011 14.2313 33.9928C12.4403 33.9916 11.0194 32.666 11.0108 30.956C10.9909 26.9505 11.0046 22.945 11.0046 18.9395C11.0046 18.8622 11.0194 18.786 11.038 18.5933Z" fill="#F44336"/>
            <path d="M24.0095 14.0023C27.2461 14.0023 30.4815 13.9976 33.7181 14.0047C35.1835 14.0083 36.394 14.8496 36.8321 16.1193C36.9547 16.4727 36.8916 16.6798 36.5413 16.8952C32.5361 19.368 28.5382 21.8526 24.5516 24.3528C24.1456 24.6074 23.8634 24.6134 23.4537 24.3564C19.4856 21.8633 15.5076 19.387 11.5197 16.9261C11.1261 16.6834 11.0494 16.4632 11.2054 16.0574C11.6856 14.802 12.8305 14.0107 14.3009 14.0059C17.5375 13.9952 20.7729 14.0023 24.0095 14.0023Z" fill="#F44336"/>
        </svg>
    </symbol>
    <symbol xmlns="http://www.w3.org/2000/svg" id="whatsApp">
        <svg width="48" height="48" viewBox="0 0 48 48" fill="none" xmlns="http://www.w3.org/2000/svg">
            <circle cx="24" cy="24" r="23.5" stroke="#43D854"/>
            <path fill-rule="evenodd" clip-rule="evenodd" d="M31.4403 16.0518C29.4662 14.0849 26.8409 13.0012 24.0439 13C18.2806 13 13.59 17.668 13.5877 23.4053C13.5869 25.2393 14.0684 27.0296 14.9834 28.6077L13.5 34L19.043 32.5529C20.5703 33.3821 22.2898 33.819 24.0397 33.8195H24.044C29.8068 33.8195 34.4978 29.1512 34.5 23.4136C34.5012 20.633 33.4146 18.0186 31.4403 16.0518ZM28.811 25.5844C28.5498 25.4541 27.2652 24.8253 27.0257 24.7384C26.7864 24.6516 26.612 24.6084 26.438 24.8686C26.2637 25.1288 25.7631 25.7146 25.6106 25.888C25.4582 26.0616 25.3059 26.0833 25.0446 25.9531C24.7833 25.823 23.9415 25.5483 22.9435 24.6625C22.1669 23.9731 21.6426 23.1216 21.4901 22.8614C21.3379 22.601 21.4889 22.4738 21.6048 22.3308C21.8876 21.9813 22.1708 21.6148 22.2579 21.4414C22.345 21.2679 22.3014 21.116 22.236 20.9859C22.1708 20.8558 21.6483 19.576 21.4306 19.0552C21.2184 18.5484 21.0032 18.6168 20.8427 18.6089C20.6905 18.6013 20.5162 18.5998 20.342 18.5998C20.1679 18.5998 19.8848 18.6648 19.6452 18.9252C19.4058 19.1855 18.7309 19.8145 18.7309 21.0943C18.7309 22.3741 19.6671 23.6105 19.7977 23.784C19.9283 23.9576 21.6401 26.5839 24.2608 27.71C24.8841 27.9781 25.3707 28.138 25.7503 28.2578C26.3762 28.4557 26.9456 28.4278 27.3958 28.3609C27.8978 28.2861 28.9414 27.7318 29.1593 27.1245C29.377 26.5171 29.377 25.9966 29.3116 25.888C29.2464 25.7796 29.0721 25.7146 28.811 25.5844Z" fill="#43D854"/>
        </svg>
    </symbol>
    <symbol xmlns="http://www.w3.org/2000/svg" id="fb-messanger">
        <svg width="48" height="48" viewBox="0 0 48 48" fill="none" xmlns="http://www.w3.org/2000/svg">
            <circle cx="24" cy="24" r="23.5" stroke="#0072FF"/>
            <path d="M24 13C17.9252 13 13 17.5595 13 23.1846C13 26.3898 14.5991 29.2484 17.0989 31.1156V35L20.8444 32.9444C21.844 33.2208 22.9028 33.3706 24 33.3706C30.0748 33.3706 35 28.8111 35 23.186C35 17.5609 30.0748 13 24 13ZM25.0931 26.7156L22.2922 23.7277L16.8266 26.7156L22.8395 20.3329L25.7091 23.3208L31.106 20.3329L25.0931 26.7156Z" fill="#0073FF"/>
        </svg>
    </symbol>
    <symbol xmlns="http://www.w3.org/2000/svg" id="viber">
        <svg width="48" height="48" viewBox="0 0 48 48" fill="none" xmlns="http://www.w3.org/2000/svg">
            <circle cx="24" cy="24" r="23.5" stroke="#7360F2"/>
            <path d="M34.1902 26.3141C34.8763 20.5382 33.8605 16.8918 32.0282 15.2425L32.0291 15.2415C29.0717 12.425 19.084 12.0081 15.5458 15.368C13.9569 17.0115 13.3972 19.4237 13.3359 22.4098C13.2745 25.397 13.2017 30.9927 18.416 32.5107H18.4208L18.416 34.8289C18.416 34.8289 18.3805 35.768 18.9805 35.9568C19.6666 36.1792 19.9771 35.7431 22.1113 33.194C25.6802 33.5035 28.421 32.7943 28.7325 32.6908C29.4531 32.4493 33.5308 31.9098 34.1902 26.3141ZM22.463 31.5629C22.463 31.5629 20.2042 34.3794 19.5018 35.1106C19.2718 35.3483 19.0197 35.3263 19.0236 34.8548C19.0236 34.5452 19.0408 31.0061 19.0408 31.0061C14.62 29.7392 14.8807 24.9743 14.9286 22.4817C14.9765 19.9881 15.4327 17.9459 16.7782 16.5707C19.8822 13.6603 28.6385 14.311 30.8695 16.4078C33.597 18.8257 32.6262 25.6567 32.6319 25.8895C32.0713 30.5605 28.767 30.8566 28.1594 31.0588C27.8997 31.145 25.4895 31.7651 22.463 31.5629Z" fill="#7360F2"/>
            <path d="M23.7128 17.1179C23.3438 17.1179 23.3438 17.6929 23.7128 17.6977C26.5753 17.7198 28.9328 19.715 28.9587 23.3749C28.9587 23.7611 29.5241 23.7563 29.5193 23.3701H29.5183C29.4877 19.4265 26.9136 17.14 23.7128 17.1179Z" fill="#7360F2"/>
            <path d="M27.4781 22.7683C27.4694 23.1497 28.0339 23.168 28.0387 22.7817C28.0857 20.6073 26.7449 18.8162 24.2255 18.6274C23.8565 18.6005 23.8182 19.1803 24.1862 19.2072C26.3712 19.373 27.5222 20.8641 27.4781 22.7683Z" fill="#7360F2"/>
            <path d="M26.8743 25.2418C26.4009 24.9677 25.9188 25.1383 25.7195 25.4076L25.3026 25.9471C25.0908 26.2212 24.695 26.1848 24.695 26.1848C21.8066 25.421 21.0342 22.3984 21.0342 22.3984C21.0342 22.3984 20.9987 21.9892 21.2632 21.7697L21.7846 21.3385C22.0452 21.1315 22.2101 20.6331 21.9446 20.1434C21.2355 18.8621 20.7592 18.4204 20.5167 18.0811C20.2618 17.762 19.8785 17.6901 19.4798 17.9057H19.4712C18.6422 18.3906 17.7347 19.2982 18.025 20.2326C18.5205 21.2177 19.4309 24.3582 22.3327 26.731C23.6965 27.8532 25.8546 29.0032 26.7708 29.2687L26.7794 29.2821C27.6822 29.583 28.56 28.64 29.0286 27.7861V27.7794C29.2366 27.3664 29.1676 26.9754 28.8638 26.7195C28.3252 26.1944 27.5125 25.6146 26.8743 25.2418Z" fill="#7360F2"/>
            <path d="M24.6203 20.7663C25.5413 20.82 25.9878 21.3011 26.0358 22.2891C26.053 22.6753 26.6136 22.6485 26.5964 22.2623C26.5351 20.9724 25.8623 20.2536 24.651 20.1865C24.282 20.1645 24.2475 20.7443 24.6203 20.7663Z" fill="#7360F2"/>
        </svg>
    </symbol>
    <symbol xmlns="http://www.w3.org/2000/svg" id="telegram">
        <svg width="48" height="48" viewBox="0 0 48 48" fill="none" xmlns="http://www.w3.org/2000/svg">
            <path d="M19.8098 27.8404L19.3962 33.7036C19.9879 33.7036 20.2442 33.4474 20.5515 33.1397L23.3255 30.4675L29.0736 34.7105C30.1278 35.3027 30.8705 34.9909 31.1549 33.733L34.9279 15.9125L34.9289 15.9114C35.2633 14.3406 34.3654 13.7264 33.3382 14.1117L11.1606 22.6702C9.64705 23.2624 9.66997 24.1129 10.9033 24.4983L16.5733 26.2759L29.7434 17.9694C30.3632 17.5557 30.9267 17.7846 30.4632 18.1983L19.8098 27.8404Z" fill="#039BE5"/>
            <circle cx="24" cy="24" r="23.5" stroke="#039BE5"/>
        </svg>
    </symbol>
    <symbol xmlns="http://www.w3.org/2000/svg" id="sms">
        <svg width="48" height="48" viewBox="0 0 48 48" fill="none" xmlns="http://www.w3.org/2000/svg">
            <circle cx="24" cy="24" r="23.5" stroke="#2469C7"/>
            <path fill-rule="evenodd" clip-rule="evenodd" d="M14.0858 33.881C13.7491 34.2158 13.4088 34.5472 12.9512 34.9978C13.6944 34.9978 14.2679 34.9896 14.8404 34.9989C16.222 35.0211 17.577 34.7036 18.5743 33.8016C19.481 32.9812 20.3089 33.0734 21.3445 33.2379C24.8487 33.7934 28.2425 33.4328 31.4354 31.7582C35.5723 29.5887 37.741 25.1622 36.7706 20.6355C35.9495 16.8088 33.4498 14.4037 29.9283 13.0126C27.6829 12.1257 25.3214 11.8747 22.9178 12.0546C19.148 12.3358 15.9017 13.7373 13.4517 16.7015C11.3863 19.2012 10.5176 22.0581 11.2642 25.2906C11.8006 27.6141 13.1732 29.3856 15.0738 30.7499C15.2552 30.8802 15.3641 31.0072 15.4178 31.1459C15.4818 31.3114 15.4669 31.4938 15.4024 31.7185C15.1607 32.5646 14.7022 33.2694 14.0858 33.881ZM18.5001 24C19.3284 24 20.0001 23.3284 20.0001 22.5C20.0001 21.6716 19.3284 21 18.5001 21C17.6717 21 17.0001 21.6716 17.0001 22.5C17.0001 23.3284 17.6717 24 18.5001 24ZM26.0001 22.5C26.0001 23.3284 25.3284 24 24.5001 24C23.6717 24 23.0001 23.3284 23.0001 22.5C23.0001 21.6716 23.6717 21 24.5001 21C25.3284 21 26.0001 21.6716 26.0001 22.5ZM30.5001 24C31.3284 24 32.0001 23.3284 32.0001 22.5C32.0001 21.6716 31.3284 21 30.5001 21C29.6717 21 29.0001 21.6716 29.0001 22.5C29.0001 23.3284 29.6717 24 30.5001 24Z" fill="#2469C7"/>
        </svg>
    </symbol>

    <symbol xmlns="http://www.w3.org/2000/svg" id="email-active">
        <svg width="48" height="48" viewBox="0 0 48 48" fill="none" xmlns="http://www.w3.org/2000/svg">
            <circle cx="24" cy="24" r="24" fill="#F44336"/>
            <path d="M11.038 18.5933C12.6421 19.5905 14.162 20.5353 15.6806 21.4802C18.1734 23.0307 20.676 24.5658 23.1527 26.1401C23.7517 26.5209 24.2233 26.54 24.8347 26.1544C28.6469 23.7542 32.4801 21.385 36.3058 19.0062C36.494 18.8896 36.6846 18.7765 36.9494 18.6159C36.9692 18.842 36.9952 19.005 36.9952 19.168C36.9977 23.0152 37.0039 26.8624 36.9965 30.7085C36.9927 32.7148 35.6771 33.9928 33.5977 33.9952C27.1418 34.0023 20.6859 34.0011 14.2313 33.9928C12.4403 33.9916 11.0194 32.666 11.0108 30.956C10.9909 26.9505 11.0046 22.945 11.0046 18.9395C11.0046 18.8622 11.0194 18.786 11.038 18.5933Z" fill="white"/>
            <path d="M24.0095 14.0023C27.2461 14.0023 30.4815 13.9976 33.7181 14.0047C35.1835 14.0083 36.394 14.8496 36.8321 16.1193C36.9547 16.4727 36.8916 16.6798 36.5413 16.8952C32.5361 19.368 28.5382 21.8526 24.5516 24.3528C24.1456 24.6074 23.8634 24.6134 23.4537 24.3564C19.4856 21.8633 15.5076 19.387 11.5197 16.9261C11.1261 16.6834 11.0494 16.4632 11.2054 16.0574C11.6856 14.802 12.8305 14.0107 14.3009 14.0059C17.5375 13.9952 20.7729 14.0023 24.0095 14.0023Z" fill="white"/>
        </svg>
    </symbol>
    <symbol xmlns="http://www.w3.org/2000/svg" id="whatsApp-active">
        <svg width="48" height="48" viewBox="0 0 48 48" fill="none" xmlns="http://www.w3.org/2000/svg">
            <circle cx="24" cy="24" r="24" fill="#43D854"/>
            <path fill-rule="evenodd" clip-rule="evenodd" d="M31.4403 16.0518C29.4662 14.0849 26.8409 13.0012 24.0439 13C18.2806 13 13.59 17.668 13.5877 23.4053C13.5869 25.2393 14.0684 27.0296 14.9834 28.6077L13.5 34L19.043 32.5529C20.5703 33.3821 22.2898 33.819 24.0397 33.8195H24.044C29.8068 33.8195 34.4978 29.1512 34.5 23.4136C34.5012 20.633 33.4146 18.0186 31.4403 16.0518ZM28.811 25.5844C28.5498 25.4541 27.2652 24.8253 27.0257 24.7384C26.7864 24.6516 26.612 24.6084 26.438 24.8686C26.2637 25.1288 25.7631 25.7146 25.6106 25.888C25.4582 26.0616 25.3059 26.0833 25.0446 25.9531C24.7833 25.823 23.9415 25.5483 22.9435 24.6625C22.1669 23.9731 21.6426 23.1216 21.4901 22.8614C21.3379 22.601 21.4889 22.4738 21.6048 22.3308C21.8876 21.9813 22.1708 21.6148 22.2579 21.4414C22.345 21.2679 22.3014 21.116 22.236 20.9859C22.1708 20.8558 21.6483 19.576 21.4306 19.0552C21.2184 18.5484 21.0032 18.6168 20.8427 18.6089C20.6905 18.6013 20.5162 18.5998 20.342 18.5998C20.1679 18.5998 19.8848 18.6648 19.6452 18.9252C19.4058 19.1855 18.7309 19.8145 18.7309 21.0943C18.7309 22.3741 19.6671 23.6105 19.7977 23.784C19.9283 23.9576 21.6401 26.5839 24.2608 27.71C24.8841 27.9781 25.3707 28.138 25.7503 28.2578C26.3762 28.4557 26.9456 28.4278 27.3958 28.3609C27.8978 28.2861 28.9414 27.7318 29.1593 27.1245C29.377 26.5171 29.377 25.9966 29.3116 25.888C29.2464 25.7796 29.0721 25.7146 28.811 25.5844Z" fill="white"/>
        </svg>
    </symbol>
    <symbol xmlns="http://www.w3.org/2000/svg" id="fb-messanger-active">
        <svg width="48" height="48" viewBox="0 0 48 48" fill="none" xmlns="http://www.w3.org/2000/svg">
            <circle cx="24" cy="24" r="24" fill="#0072FF"/>
            <path d="M24 13C17.9252 13 13 17.5595 13 23.1846C13 26.3898 14.5991 29.2484 17.0989 31.1156V35L20.8444 32.9444C21.844 33.2208 22.9028 33.3706 24 33.3706C30.0748 33.3706 35 28.8111 35 23.186C35 17.5609 30.0748 13 24 13ZM25.0931 26.7156L22.2922 23.7277L16.8266 26.7156L22.8395 20.3329L25.7091 23.3208L31.106 20.3329L25.0931 26.7156Z" fill="white"/>
        </svg>
    </symbol>
    <symbol xmlns="http://www.w3.org/2000/svg" id="viber-active">
        <svg width="48" height="48" viewBox="0 0 48 48" fill="none" xmlns="http://www.w3.org/2000/svg">
            <circle cx="24" cy="24" r="24" fill="#7360F2"/>
            <path d="M34.1902 26.3141C34.8763 20.5382 33.8605 16.8918 32.0282 15.2425L32.0291 15.2415C29.0717 12.425 19.084 12.0081 15.5458 15.368C13.9569 17.0115 13.3972 19.4237 13.3359 22.4098C13.2745 25.397 13.2017 30.9927 18.416 32.5107H18.4208L18.416 34.8289C18.416 34.8289 18.3805 35.768 18.9805 35.9568C19.6666 36.1792 19.9771 35.7431 22.1113 33.194C25.6802 33.5035 28.421 32.7943 28.7325 32.6908C29.4531 32.4493 33.5308 31.9098 34.1902 26.3141ZM22.463 31.5629C22.463 31.5629 20.2042 34.3794 19.5018 35.1106C19.2718 35.3483 19.0197 35.3263 19.0236 34.8548C19.0236 34.5452 19.0408 31.0061 19.0408 31.0061C14.62 29.7392 14.8807 24.9743 14.9286 22.4817C14.9765 19.9881 15.4327 17.9459 16.7782 16.5707C19.8822 13.6603 28.6385 14.311 30.8695 16.4078C33.597 18.8257 32.6262 25.6567 32.6319 25.8895C32.0713 30.5605 28.767 30.8566 28.1594 31.0588C27.8997 31.145 25.4895 31.7651 22.463 31.5629Z" fill="white"/>
            <path d="M23.7128 17.1179C23.3438 17.1179 23.3438 17.6929 23.7128 17.6977C26.5753 17.7198 28.9328 19.715 28.9587 23.3749C28.9587 23.7611 29.5241 23.7563 29.5193 23.3701H29.5183C29.4877 19.4265 26.9136 17.14 23.7128 17.1179Z" fill="white"/>
            <path d="M27.4781 22.7683C27.4694 23.1497 28.0339 23.168 28.0387 22.7817C28.0857 20.6073 26.7449 18.8162 24.2255 18.6274C23.8565 18.6005 23.8182 19.1803 24.1862 19.2072C26.3712 19.373 27.5222 20.8641 27.4781 22.7683Z" fill="white"/>
            <path d="M26.8743 25.2418C26.4009 24.9677 25.9188 25.1383 25.7195 25.4076L25.3026 25.9471C25.0908 26.2212 24.695 26.1848 24.695 26.1848C21.8066 25.421 21.0342 22.3984 21.0342 22.3984C21.0342 22.3984 20.9987 21.9892 21.2632 21.7697L21.7846 21.3385C22.0452 21.1315 22.2101 20.6331 21.9446 20.1434C21.2355 18.8621 20.7592 18.4204 20.5167 18.0811C20.2618 17.762 19.8785 17.6901 19.4798 17.9057H19.4712C18.6422 18.3906 17.7347 19.2982 18.025 20.2326C18.5205 21.2177 19.4309 24.3582 22.3327 26.731C23.6965 27.8532 25.8546 29.0032 26.7708 29.2687L26.7794 29.2821C27.6822 29.583 28.56 28.64 29.0286 27.7861V27.7794C29.2366 27.3664 29.1676 26.9754 28.8638 26.7195C28.3252 26.1944 27.5125 25.6146 26.8743 25.2418Z" fill="white"/>
            <path d="M24.6203 20.7663C25.5413 20.82 25.9878 21.3011 26.0358 22.2891C26.053 22.6753 26.6136 22.6485 26.5964 22.2623C26.5351 20.9724 25.8623 20.2536 24.651 20.1865C24.282 20.1645 24.2475 20.7443 24.6203 20.7663Z" fill="white"/>
        </svg>
    </symbol>
    <symbol xmlns="http://www.w3.org/2000/svg" id="telegram-active">
        <svg width="48" height="48" viewBox="0 0 48 48" fill="none" xmlns="http://www.w3.org/2000/svg">
            <circle cx="24" cy="24" r="24" fill="#039BE5"/>
            <path d="M19.8098 27.8404L19.3962 33.7036C19.9879 33.7036 20.2442 33.4474 20.5515 33.1397L23.3255 30.4675L29.0736 34.7105C30.1278 35.3027 30.8705 34.9909 31.1549 33.733L34.9279 15.9125L34.9289 15.9114C35.2633 14.3406 34.3654 13.7264 33.3382 14.1117L11.1606 22.6702C9.64705 23.2624 9.66997 24.1129 10.9033 24.4983L16.5733 26.2759L29.7434 17.9694C30.3632 17.5557 30.9267 17.7846 30.4632 18.1983L19.8098 27.8404Z" fill="white"/>
        </svg>
    </symbol>
    <symbol xmlns="http://www.w3.org/2000/svg" id="sms-active">
        <svg width="48" height="48" viewBox="0 0 48 48" fill="none" xmlns="http://www.w3.org/2000/svg">
            <circle cx="24" cy="24" r="24" fill="#2469C7"/>
            <path fill-rule="evenodd" clip-rule="evenodd" d="M13.4072 35.5497L13.4066 35.5503C13.2665 35.6878 13.1165 35.835 12.9513 35.9978C13.2004 35.9978 13.4305 35.9968 13.648 35.996H13.6484H13.6487H13.6489H13.649C14.0795 35.9942 14.4602 35.9927 14.8403 35.9989C16.222 36.0211 17.5769 35.7037 18.5743 34.8016C19.4811 33.9812 20.3089 34.0734 21.3446 34.2379C24.8486 34.7934 28.2424 34.4328 31.4353 32.7582C35.5722 30.5887 37.741 26.1623 36.7704 21.6355C35.9495 17.8089 33.4498 15.4037 29.9283 14.0126C27.6828 13.1257 25.3212 12.8748 22.9178 13.0545C19.1478 13.3358 15.9015 14.7373 13.4517 17.7015C11.3861 20.2012 10.5177 23.058 11.2642 26.2906C11.8006 28.6141 13.173 30.3856 15.0737 31.7499C15.4719 32.0358 15.5207 32.3054 15.4023 32.7185C15.1608 33.5646 14.7021 34.2694 14.0856 34.8809C13.8708 35.0947 13.6545 35.307 13.4072 35.5497ZM18.5 25C19.3284 25 20 24.3284 20 23.5C20 22.6716 19.3284 22 18.5 22C17.6716 22 17 22.6716 17 23.5C17 24.3284 17.6716 25 18.5 25ZM26 23.5C26 24.3284 25.3284 25 24.5 25C23.6716 25 23 24.3284 23 23.5C23 22.6716 23.6716 22 24.5 22C25.3284 22 26 22.6716 26 23.5ZM30.5 25C31.3284 25 32 24.3284 32 23.5C32 22.6716 31.3284 22 30.5 22C29.6716 22 29 22.6716 29 23.5C29 24.3284 29.6716 25 30.5 25Z" fill="white"/>
        </svg>
    </symbol>
</svg>
