<svg width="71" height="70" viewBox="0 0 71 70" fill="none"  xmlns="http://www.w3.org/2000/svg">
<path d="M61.275 37.9987C62.3178 27.6024 56.4726 16.7628 47.2035 11.9169C24.6424 0.119763 5.69208 26.3608 13.7126 47.4602C22.873 71.554 58.9645 61.038 61.275 37.9987Z" fill="#B4DDE9"/>
<path d="M44.2586 27.0904C44.2586 27.0904 44.2586 25.4758 44.2586 22.7205H27.5072C26.3005 22.7205 25.3223 23.6987 25.3223 24.9054C25.3223 26.1122 26.3005 27.0904 27.5072 27.0904H44.2586Z" fill="white"/>
<path d="M25.3223 43.9388C25.3223 45.9467 26.956 47.5804 28.9639 47.5804H44.2586V28.547H27.5072C26.6843 28.547 25.9328 28.2622 25.3223 27.8V43.9388ZM31.1488 35.1504H34.0621V32.2371H35.5188V35.1504H38.4321V36.6071H35.5188V42.4336H34.0621V36.6071H31.1488V35.1504Z" fill="white"/>
</svg>
