<svg width="68" height="68" viewBox="0 0 68 68" fill="none" xmlns="http://www.w3.org/2000/svg">
<path d="M58.8437 36.4191C59.8545 26.3415 54.1884 15.8341 45.2034 11.1367C23.3338 -0.298928 4.96423 25.1379 12.7389 45.5906C21.6185 68.946 56.604 58.7523 58.8437 36.4191Z" fill="#B4DDE9"/>
<path d="M43.8452 25.9454C42.6971 24.7236 41.0883 24.0285 39.4028 24.0259C37.7159 24.0278 36.1055 24.7226 34.9556 25.9446L34.5637 26.3546L34.1718 25.9446C31.8902 23.5134 28.0499 23.3737 25.5942 25.6327C25.4854 25.7328 25.3803 25.8368 25.2792 25.9446C22.8588 28.5293 22.8588 32.5239 25.2792 35.1087L33.9878 44.2012C34.2891 44.5161 34.7912 44.5296 35.1093 44.2313C35.1197 44.2216 35.1298 44.2115 35.1397 44.2012L43.8452 35.1087C46.2654 32.5242 46.2654 28.5299 43.8452 25.9454Z" fill="white"/>
</svg>
