<svg width="67" height="67" viewBox="0 0 67 67" fill="none" xmlns="http://www.w3.org/2000/svg">
<path d="M57.3392 36.084C58.3254 26.2515 52.7972 15.9997 44.0307 11.4165C22.693 0.259078 4.77019 25.0772 12.3558 45.0325C21.0194 67.8199 55.154 57.8741 57.3392 36.084Z" fill="#B4DDE9"/>
<path d="M29.0381 27.9195C30.7658 27.9204 32.4934 27.9159 34.2202 27.9213C35.6661 27.9258 36.8934 28.3886 37.7595 29.6188C38.3935 30.52 38.4504 31.5622 38.4639 32.5963C38.4919 34.7313 38.4747 36.8672 38.4648 39.0022C38.4585 40.2704 37.9275 40.8426 36.6613 40.8489C33.2367 40.8661 29.8112 40.8643 26.3875 40.8353C25.4121 40.8272 24.4485 40.7016 23.6204 40.0652C22.5321 39.23 22.0553 38.1164 22.0462 36.7822C22.03 34.3471 22.0291 31.912 22.0336 29.4778C22.0354 28.5332 22.6387 27.9285 23.5851 27.9222C25.4022 27.9104 27.2202 27.9186 29.0381 27.9195Z" fill="white"/>
<path d="M44.7989 34.6156C44.7989 36.3132 44.7953 38.0107 44.8016 39.7082C44.8035 40.1294 44.6373 40.4386 44.2553 40.6094C43.8967 40.7703 43.549 40.7242 43.2447 40.4702C42.1727 39.5762 41.0917 38.6922 40.0386 37.7757C39.5157 37.321 39.2891 36.6946 39.28 36.0058C39.2665 34.9239 39.2638 33.8419 39.2782 32.7599C39.2882 32.0558 39.5266 31.4249 40.0666 30.9575C41.0881 30.0726 42.1275 29.2103 43.1607 28.3389C43.4994 28.0533 43.8787 27.9575 44.2878 28.1545C44.6815 28.3453 44.8161 28.6842 44.8134 29.1172C44.8035 30.9494 44.8089 32.7816 44.8089 34.6147C44.8053 34.6156 44.8017 34.6156 44.7989 34.6156Z" fill="white"/>
</svg>
