<svg width="160" height="141" viewBox="0 0 160 141" fill="none" xmlns="http://www.w3.org/2000/svg">
<path opacity="0.4" d="M128.188 76.4032C130.291 55.436 118.502 33.5746 99.8084 23.8014C54.3072 0.0087814 16.088 52.9319 32.2638 95.4853C50.7385 144.078 123.528 122.869 128.188 76.4032Z" fill="#B4DDE9"/>
<path opacity="0.4" d="M157.903 30.3072C158.096 28.3847 157.015 26.3801 155.301 25.484C151.129 23.3024 147.625 28.155 149.108 32.0569C150.802 36.5124 157.476 34.5678 157.903 30.3072Z" fill="#B4DDE9"/>
<path opacity="0.4" d="M11.2749 111.915C11.4677 109.993 10.3868 107.988 8.67269 107.092C4.50057 104.91 0.99616 109.763 2.47936 113.665C4.17335 118.12 10.8476 116.176 11.2749 111.915Z" fill="#B4DDE9"/>
<path opacity="0.4" d="M2.44129 83.4527C1.5375 83.8603 0.924071 84.8549 0.96562 85.8465C1.06657 88.2601 4.12201 88.5724 5.47534 86.9123C7.02065 85.0164 4.44417 82.5495 2.44129 83.4527Z" fill="#B4DDE9"/>
<path d="M62.6309 70.1681L75.7219 82.8156L95.2479 62.8459" stroke="#B4DDE9" stroke-width="4"/>
</svg>
