<svg width="66" height="66" viewBox="0 0 66 66" fill="none" xmlns="http://www.w3.org/2000/svg">
<path d="M57.1927 35.4811C58.1789 25.6486 52.6507 15.3968 43.8842 10.8136C22.5465 -0.343827 4.62371 24.4743 12.2093 44.4296C20.873 67.217 55.0075 57.2712 57.1927 35.4811Z" fill="#0099FF"/>
<path d="M28.8912 27.3166C30.6188 27.3175 32.3465 27.313 34.0732 27.3184C35.5191 27.323 36.7464 27.7858 37.6125 29.016C38.2465 29.9172 38.3034 30.9594 38.3169 31.9934C38.3449 34.1284 38.3278 36.2644 38.3178 38.3994C38.3115 39.6675 37.7805 40.2397 36.5143 40.246C33.0897 40.2632 29.6642 40.2614 26.2405 40.2325C25.2652 40.2243 24.3015 40.0987 23.4734 39.4624C22.3851 38.6272 21.9083 37.5135 21.8993 36.1794C21.883 33.7443 21.8821 31.3092 21.8866 28.875C21.8884 27.9304 22.4917 27.3257 23.4382 27.3193C25.2552 27.3076 27.0732 27.3157 28.8912 27.3166Z" fill="white"/>
<path d="M44.652 34.0128C44.652 35.7103 44.6484 37.4078 44.6547 39.1054C44.6565 39.5266 44.4903 39.8357 44.1083 40.0066C43.7498 40.1674 43.4021 40.1214 43.0977 39.8674C42.0257 38.9734 40.9447 38.0894 39.8917 37.1728C39.3688 36.7182 39.1421 36.0918 39.1331 35.403C39.1195 34.321 39.1168 33.239 39.1312 32.1571C39.1412 31.4529 39.3796 30.822 39.9197 30.3547C40.9411 29.4698 41.9806 28.6075 43.0137 27.7361C43.3524 27.4505 43.7317 27.3546 44.1408 27.5517C44.5346 27.7424 44.6691 28.0814 44.6664 28.5143C44.6565 30.3466 44.6619 32.1788 44.6619 34.0119C44.6583 34.0128 44.6547 34.0128 44.652 34.0128Z" fill="white"/>
</svg>
