<svg width="126" height="127" viewBox="0 0 126 127" fill="none" xmlns="http://www.w3.org/2000/svg">
<path opacity="0.2" d="M81.9875 15.6216C62.2791 8.1635 38.1114 13.8923 23.8329 29.4198C-10.9256 67.2126 30.3023 117.827 75.5924 113.216C127.311 107.948 125.664 32.1489 81.9875 15.6216Z" fill="#FEABB3"/>
<path d="M61.5055 65.504C61.8156 65.6189 62.1626 65.627 62.4944 65.504L80.283 58.8333V74.2122C80.7347 74.0986 81.2029 74.0316 81.6894 74.0316C82.1759 74.0316 82.6441 74.0986 83.0958 74.2122V57.7784L85.0903 57.0656C86.302 56.6101 86.3043 54.8877 85.0903 54.4313L62.4944 45.993C62.1757 45.8749 61.8241 45.8749 61.5055 45.993L38.9096 54.4313C37.698 54.8868 37.6956 56.6092 38.9096 57.0656L61.5055 65.504Z" fill="#FEABB3"/>
<path d="M81.6894 76.8444C79.2845 76.8444 77.4702 79.8672 77.4702 83.8763V86.6891C77.4702 87.4664 78.0992 88.0955 78.8766 88.0955H84.5021C85.2795 88.0955 85.9085 87.4664 85.9085 86.6891V83.8763C85.9085 79.8672 84.0943 76.8444 81.6894 76.8444Z" fill="#FEABB3"/>
<path d="M76.5464 63.2388L63.482 68.1382C62.5034 68.4996 61.4687 68.4901 60.5277 68.1409L47.4538 63.2386C46.2807 67.5379 46.579 70.3594 46.5298 71.2187C46.5298 72.2136 47.541 72.8929 48.4567 72.5249C48.4897 72.5125 51.7777 71.2187 54.9681 71.2187C57.936 71.2187 61.0922 73.6991 61.1238 73.7252C61.6267 74.1254 62.3587 74.1385 62.8789 73.7238C63.7498 73.0261 66.5529 71.2187 69.032 71.2187C72.2224 71.2187 75.5104 72.5124 75.5433 72.5248C76.4569 72.892 77.4703 72.2154 77.4703 71.2187C77.4231 70.394 77.7125 67.5123 76.5464 63.2388Z" fill="#FEABB3"/>
</svg>
