<svg width="141" height="140" viewBox="0 0 141 140" fill="none" xmlns="http://www.w3.org/2000/svg">
<path opacity="0.2" d="M121.639 75.6611C123.742 54.694 111.953 32.8326 93.2591 23.0593C47.7579 -0.733284 9.53864 52.1898 25.7145 94.7432C44.1891 143.336 116.979 122.127 121.639 75.6611Z" fill="#B4DDE9"/>
<path d="M93.6228 64.4914C93.3304 64.199 84.8125 55.6816 84.5084 55.3775C84.0055 54.8747 83.1906 54.8742 82.6872 55.376L79.3122 58.7396C79.0236 58.7432 74.6686 57.1578 71.0856 60.741L62.0633 69.7632C61.56 70.2666 61.56 71.0826 62.0633 71.586C64.5764 74.0991 68.6645 74.0975 71.1761 71.586L72.5003 70.2618C74.7227 71.6152 77.5424 71.4902 79.6332 69.9699L84.8824 75.2192C85.4366 75.7734 85.8766 76.4118 86.1911 77.1036C87.9551 75.0198 89.2509 72.583 89.9985 69.9261L93.6211 66.3164C94.1281 65.8095 94.1239 64.994 93.6228 64.4914Z" fill="#B4DDE9"/>
<path d="M79.1666 73.1485C77.2161 73.9202 75.0533 73.982 73.0684 73.3393C68.4104 76.4644 64.2395 77.4079 60.2405 73.4089C58.7299 71.8983 58.729 69.452 60.2405 67.9405L68.51 59.671L64.7654 58.9518L61.3146 55.4993C60.8102 54.9949 59.9939 54.9975 59.4912 55.4993L50.377 64.6135C49.8743 65.117 49.8743 65.9333 50.377 66.4368C52.6248 68.6838 54.2927 71.5726 55.0746 74.5689C55.1296 74.6961 56.324 80.6473 61.6763 85.161L65.6513 88.5147C67.8561 90.3759 70.983 90.5246 73.3391 88.9787L82.4447 83.0094C84.4944 81.6677 84.795 78.7777 83.0591 77.0419L79.1666 73.1485Z" fill="#B4DDE9"/>
</svg>
