<svg width="102" height="103" viewBox="0 0 102 103" fill="none" xmlns="http://www.w3.org/2000/svg">
<path opacity="0.2" d="M81.7435 9.73836C64.637 -2.56651 39.8101 -3.28797 21.9992 8.01487C-21.3564 35.5238 5.36669 95.0842 50.307 102.352C101.627 110.649 119.654 37.0068 81.7435 9.73836Z" fill="#FFE176"/>
<path d="M66.6484 52.1506H63.2456C63.5924 53.1002 63.7819 54.1251 63.7819 55.1932V68.0537C63.7819 68.4991 63.7044 68.9265 63.5634 69.3241H69.189C71.2904 69.3241 73 67.6144 73 65.5131V58.5022C73 55 70.1507 52.1506 66.6484 52.1506Z" fill="#FFE176"/>
<path d="M38.2181 55.1933C38.2181 54.1251 38.4076 53.1004 38.7544 52.1508H35.3517C31.8493 52.1508 29 55.0001 29 58.5024V65.5133C29 67.6146 30.7096 69.3243 32.811 69.3243H38.4366C38.2956 68.9266 38.2181 68.4992 38.2181 68.0539V55.1933Z" fill="#FFE176"/>
<path d="M54.8897 48.8416H47.1104C43.6081 48.8416 40.7588 51.691 40.7588 55.1933V68.0538C40.7588 68.7553 41.3275 69.3242 42.0291 69.3242H59.971C60.6726 69.3242 61.2413 68.7554 61.2413 68.0538V55.1933C61.2413 51.691 58.392 48.8416 54.8897 48.8416Z" fill="#FFE176"/>
<path d="M51 32C46.788 32 43.3613 35.4267 43.3613 39.6387C43.3613 42.4957 44.9382 44.9909 47.2669 46.301C48.3715 46.9223 49.6449 47.2774 51 47.2774C52.355 47.2774 53.6285 46.9223 54.733 46.301C57.0619 44.9909 58.6386 42.4957 58.6386 39.6387C58.6386 35.4268 55.212 32 51 32Z" fill="#FFE176"/>
<path d="M37.5867 39.1199C34.4367 39.1199 31.874 41.6825 31.874 44.8326C31.874 47.9826 34.4367 50.5453 37.5867 50.5453C38.3858 50.5453 39.1467 50.3798 39.8379 50.0823C41.0329 49.5677 42.0183 48.657 42.628 47.5162C43.056 46.7155 43.2994 45.802 43.2994 44.8326C43.2994 41.6826 40.7368 39.1199 37.5867 39.1199Z" fill="#FFE176"/>
<path d="M64.4134 39.1199C61.2633 39.1199 58.7007 41.6825 58.7007 44.8326C58.7007 45.8021 58.9441 46.7156 59.3721 47.5162C59.9818 48.6571 60.9672 49.5678 62.1623 50.0823C62.8534 50.3798 63.6143 50.5453 64.4134 50.5453C67.5634 50.5453 70.1261 47.9826 70.1261 44.8326C70.1261 41.6825 67.5634 39.1199 64.4134 39.1199Z" fill="#FFE176"/>
</svg>
