<?xml version="1.0" standalone="no"?>
<!DOCTYPE svg PUBLIC "-//W3C//DTD SVG 20010904//EN"
 "http://www.w3.org/TR/2001/REC-SVG-20010904/DTD/svg10.dtd">
<svg version="1.0" xmlns="http://www.w3.org/2000/svg"
 width="640.000000pt" height="640.000000pt" viewBox="0 0 640.000000 640.000000"
 preserveAspectRatio="xMidYMid meet">
<metadata>
Created by potrace 1.11, written by Peter Selinger 2001-2013
</metadata>
<g transform="translate(0.000000,640.000000) scale(0.100000,-0.100000)"
fill="#000000" stroke="none">
<path d="M2987 6243 c-2 -1 -34 -4 -72 -7 -104 -9 -161 -16 -255 -32 -130 -22
-142 -24 -185 -36 -22 -6 -47 -12 -55 -13 -8 -1 -35 -8 -60 -15 -25 -7 -50
-14 -55 -15 -22 -5 -203 -69 -274 -97 -87 -34 -264 -119 -371 -178 -97 -54
-360 -230 -360 -241 0 -5 -6 -9 -14 -9 -8 0 -16 -3 -18 -7 -1 -5 -41 -40 -88
-79 -144 -121 -285 -267 -415 -430 -75 -93 -217 -303 -219 -322 -1 -14 79 -15
734 -15 747 1 850 4 1018 27 61 8 154 32 212 53 8 4 20 7 27 9 53 11 266 134
329 190 12 11 36 33 55 49 19 17 54 55 79 85 25 30 53 63 63 74 9 11 17 23 17
26 0 4 9 17 20 30 11 13 20 29 20 37 0 7 4 13 8 13 5 0 30 46 57 103 51 105
59 117 85 117 47 0 45 44 45 -960 0 -892 -1 -943 -18 -961 -35 -37 -53 -20
-121 114 -31 59 -62 115 -70 123 -8 8 -18 23 -21 34 -3 11 -10 20 -15 20 -5 0
-11 9 -15 20 -11 36 -189 207 -275 266 -80 54 -234 134 -259 134 -6 0 -19 4
-29 9 -18 10 -116 36 -172 45 -19 3 -46 8 -60 11 -69 13 -284 17 -1046 19
-678 1 -834 -1 -847 -12 -9 -8 -21 -30 -28 -50 -7 -20 -19 -53 -27 -72 -9 -19
-16 -38 -16 -42 -1 -3 -4 -10 -8 -14 -5 -4 -8 -17 -8 -29 0 -12 -3 -25 -7 -29
-5 -4 -8 -11 -8 -14 -1 -4 -11 -36 -22 -72 -19 -55 -45 -155 -78 -295 -4 -16
-9 -41 -10 -55 -2 -14 -6 -39 -9 -56 -3 -18 -8 -49 -11 -70 -4 -38 -16 -132
-17 -143 0 -3 0 -12 1 -19 1 -10 396 -12 2089 -9 1148 1 2098 6 2111 9 13 4
49 10 80 14 198 23 393 104 569 238 9 6 52 48 96 92 98 97 168 196 242 341 31
60 59 112 64 116 13 14 47 -10 57 -40 11 -33 11 -1838 0 -1870 -10 -28 -35
-37 -58 -21 -10 7 -43 61 -73 120 -30 59 -76 138 -102 175 -66 94 -215 240
-303 298 -77 50 -223 122 -276 136 -177 48 -178 48 -315 66 -77 9 -4190 8
-4191 -2 -2 -15 -1 -52 5 -150 7 -112 10 -140 32 -280 3 -16 12 -64 21 -105 8
-41 17 -84 19 -95 4 -20 38 -142 70 -248 22 -74 44 -90 121 -87 121 3 162 2
172 -5 6 -3 16 -3 22 1 6 3 48 6 92 5 45 -1 89 -1 97 -2 8 0 51 0 95 1 44 0
87 0 95 -1 8 0 36 1 63 3 26 2 47 1 47 -2 0 -3 26 -4 57 -3 146 6 221 5 232
-1 6 -4 16 -4 22 0 15 9 133 9 148 0 6 -4 11 -4 11 1 0 4 65 8 145 8 80 0 145
-3 145 -7 0 -4 7 -5 15 -2 23 9 125 10 125 1 0 -4 8 -4 18 1 14 7 155 8 172 2
3 -2 10 -1 15 0 6 1 240 3 520 5 281 1 519 5 530 8 11 2 46 8 79 12 69 8 105
14 128 21 9 3 25 7 35 9 38 7 196 67 231 87 73 40 127 73 142 85 95 75 149
124 200 184 61 70 150 200 150 218 0 5 3 11 8 13 4 2 25 40 46 85 45 93 65
106 96 63 19 -27 20 -45 20 -958 0 -902 -1 -930 -19 -946 -35 -32 -53 -16
-106 89 -55 110 -95 178 -107 183 -4 2 -8 8 -8 14 0 14 -73 102 -139 168 -187
186 -423 294 -736 336 -43 6 -2786 13 -2797 7 -7 -3 47 -112 103 -206 19 -33
42 -73 52 -90 11 -18 27 -41 37 -52 9 -11 19 -24 21 -30 8 -20 103 -145 111
-145 4 0 8 -5 8 -11 0 -6 6 -16 12 -23 7 -7 38 -42 68 -77 55 -65 204 -214
276 -279 76 -67 193 -160 202 -160 5 0 12 -6 15 -14 3 -8 17 -20 30 -28 34
-18 147 -91 161 -103 12 -10 28 -20 95 -57 20 -11 41 -24 46 -28 30 -22 319
-160 336 -160 6 0 23 -6 37 -14 23 -12 55 -26 72 -31 3 0 46 -14 95 -30 50
-16 95 -30 100 -31 6 -2 35 -10 65 -19 30 -8 69 -17 85 -20 17 -3 46 -10 65
-15 19 -5 51 -11 70 -14 19 -3 44 -7 55 -10 185 -36 517 -50 765 -32 76 5 320
39 365 50 6 2 28 6 50 10 22 4 54 12 71 17 17 5 42 12 55 15 39 8 54 12 57 14
1 2 5 3 10 4 15 4 158 47 172 53 8 4 17 7 20 8 3 1 18 7 33 13 16 7 34 12 41
12 6 0 17 5 23 11 6 6 17 12 24 13 42 8 342 156 399 196 15 11 33 20 39 20 6
0 11 5 11 10 0 6 5 10 10 10 11 0 79 42 121 75 14 11 36 27 49 35 27 18 159
119 183 140 224 197 379 365 529 575 75 106 158 238 158 253 0 6 4 12 8 14 9
3 138 258 135 267 -1 3 2 11 7 16 9 11 81 199 99 260 7 22 15 47 18 55 7 18
10 29 17 55 2 11 13 56 25 100 20 79 23 91 41 190 5 28 11 59 13 70 3 11 8 54
12 95 4 41 9 84 11 95 4 17 16 257 15 290 -2 84 -11 263 -15 292 -3 21 -8 63
-11 93 -9 74 -14 109 -22 145 -4 17 -7 35 -8 40 -8 69 -62 268 -111 410 -25
72 -46 135 -48 140 -17 55 -143 310 -202 408 -30 50 -54 93 -54 97 0 3 -8 15
-18 26 -10 10 -27 35 -39 54 -12 20 -31 47 -43 59 -11 13 -20 27 -20 30 0 3
-13 20 -28 38 -15 17 -36 44 -47 59 -11 16 -29 38 -40 50 -11 11 -45 49 -75
85 -63 73 -111 121 -229 228 -46 42 -93 84 -103 94 -10 9 -21 17 -24 17 -4 0
-23 14 -43 30 -20 17 -42 35 -49 41 -54 44 -307 204 -326 206 -5 1 -12 5 -15
11 -19 28 -371 183 -541 237 -111 35 -208 61 -340 90 -80 17 -273 43 -380 51
-90 7 -418 12 -423 7z"/>
</g>
</svg>
